<svg id="camroad" xmlns="http://www.w3.org/2000/svg" viewBox="0 0 701.29 686.33"><g id="_camroad_body_" data-name="&lt;camroad_body&gt;"><path id="_camroad_" data-name="&lt;camroad&gt;" d="M204.1,560.3c2.5-9.8,11-4.3,16.1-7.2l.7,1c-1.8,2.9-3.3,6-5.5,8.5a17.14,17.14,0,0,0-4.5,12.8c.8,15.4-.5,14.6,14.4,14.6,2.7,0,5.4-.4,8,0,8.9,1.7,13.4-3.8,17.3-10.3a56.46,56.46,0,0,1,8-10.1,6.47,6.47,0,0,1,4.9-1.9c17.8-.7,35.5-.3,53.3-.2,3,0,3.8-.4,3.9-3.7.1-15,.7-30,1.2-45,.1-2.4-.8-3.5-3.2-3.4-20.9.5-41.9-.3-62.9,1.1-8.1.5-12.1,5.2-16,10.8-5.3,7.6-10.5,15.2-15.7,22.9-1.8,2.7-4.6,1.7-6.8,1.4-2.9-.4-6.9,1.7-8.7-2.4s2.4-5.6,4.2-7.7c8.8-10,16.3-21.1,25.4-31.8-7.9-.7-15.2-1.3-22.4-2.1-5.7-.6-11.4-1.3-17.2-2.1-7.3-1-10.7-5.6-9.9-12.9.6-6.4.7-13,1.3-19.4.4-3.9,3.3-6.7,5.5-9.6,8.3-10.9,16.9-21.6,25.4-32.4.9-1.2,1.8-2.4,3.4-2.7,22.7-5,45.1-11.8,68.4-14.4,12.7-1.4,25.3-3.1,38-4.2,2.2-.2,4.4-.5,3.8-3.8-.4-2.2,1.6-2.9,3.1-3.3,11.2-3.4,22.6-2.8,34.1-2,1.4.1,2.8.7,2.8,2.3-.1,4.4,3,4.1,5.8,4.1,6.2-.1,12.5,0,18.7-.7,4.4-.4,6.8.2,5.5,5.2a4.25,4.25,0,0,0,1.1-.2c.3-5.9,4.3-6.3,8.8-5.8,4.9.5,10.3-1.9,14.7,2.2a1,1,0,0,0,.9.1c4.4-1.6,4.8-1.8,7.2,1.7,2.8,3.9,6.1,4.9,10.9,4.8,41.2-.3,82.4-.2,123.6-.1,1.2,0,3.4-.6,3.6.6.2,1.6.6,3.6-1.1,5-2,1.7-2.7,4-2.4,7.4,2.3-3.2,5.7-4.9,5.5-9-.2-3.5,1.9-4,4.7-3.9,21.3.5,42.6-.2,64,.8,3.4.2,6.9-1.5,10,1a10.15,10.15,0,0,0-1.2,8.3c.5,2.1,1.5,2.7,3.4,1.5a8.94,8.94,0,0,0,2.3,6.6c.5-4.5,3-7,6.5-8.6a1.23,1.23,0,0,0,.8-1.6c-.3-.9-.9-.6-1.5-.3-1.6.8-4.1,1.3-3.2-1.2.8-2.3-3.1-6.3,2.5-7,6.2-.7,12.4-2,18.5-3.1,2.2-.4,3.1-.2,4.2,2.4,5,12,10.8,23.6,15.6,35.7a39.38,39.38,0,0,1,2.5,14c.1,3.4-4.4,4.3-5.8,7.9l5.1-3.8c1.6,2.1,1.3,4.4,1.7,6.4-2.3.9-1.6-2.1-3.1-1.7-.2.1-.2,1.2-.4,1.8-.7,2.4.9,1.9,2.3,1.9,2,0,1.3,1.6,1.4,2.6.1,8.2,2.9,16.1,1.5,24.5-.4,2.5,1.5,5.5,1,8.5-.3,1.7,3.3,4.5-1.5,5a1.88,1.88,0,0,0-.2.8c5.5,3.3,3.3,9.1,3.7,13.5a244.45,244.45,0,0,1,.2,37.3c-.5,5.9.4,11.6.3,17.4-.1,6.4,0,12.9,0,19.3,0,7.1-1.3,14.5.3,21.1,1.6,6.4,0,12.2.5,18.3.5,6.7-2.7,12.2-5.3,17.9-.9,2-2.6,2.3-4.5,2.4-7.8.5-15.5,1.2-23.3,1.6-3.7.2-7,1.2-9.1,4.2-1.9,2.8-4.7,3.1-7.3,3.1-15.5-.1-30.9.2-46.3,1.1a100.83,100.83,0,0,0-15.6,2c-3.5.7-4.5-.7-5.3-3.4-2.5-8.2-5.3-16.3-7.7-24.5-.9-2.9-2.5-4-5.4-4-17,0-34,0-50.9.1-3.1,0-5.2,1-6.2,4.4-2.8,9.1-6.2,18.1-9,27.2-.7,2.3-1.5,2.8-3.7,2.8q-42.15-.15-84.3-.1c-32,0-64.1-.3-96.1.1-7.5.1-7.4-5.9-9.2-9.7-4.4-9.6-8.7-19.2-14.4-28.1-1.3-2.1-3.2-3.2-5.1-4.5-11.1-7-23-7.5-35.1-3.8-8.1,2.4-12.8,9.4-16.8,16.2-4.4,7.3-7.8,15.2-11.6,22.8-1.4,2.7-3.6,3.6-6.6,3.5-14.9-.6-29.9-1.1-44.8-1.6-7.3-.2-10.5-3.1-10.5-10.3,0-4-2.8-8.7.6-11.8,2.9-2.7,7.6,0,11.6-1-.3-.5-.5-.9-.6-.9-6.7.9-8-3.9-7.9-8.5.3-9.3-3.5-18.2-2.4-27.6,1.2-10.2-.6-20.6,2-30.7.9-3.4,1.8-7,4.7-9.6.7-.6,1.8-1.2,1.3-2.4s-1.8-1.2-3-1.3c-3.8-.2-7.5-.4-11.3-.7-7.6-.7-8.9-3.4-4.9-10.3,2.1-2.9,6.1-4.2,6.9-8.2,2.6-.1,5,0,3.2,3.7-.7,1.4.1,1.6,1,2.2s2.5-2.6,2.7.5c.1,1.8-.3,3.7-2.7,4.1a3.64,3.64,0,0,0-2.2.8c-.7,1.1-2.5,1.4-2.2,3,.4,2.1,2.2.8,3.3,1.1,1.8.4,3.9-.1,5.7.3,7,1.8,11.7-.9,14.5-7.3a17.09,17.09,0,0,1,2.1-2.6c1.3,1.1.7,3.4,2.4,4.3-.2,3.1-.4,6.3-.7,10,4.4-1.8,2-5.6,3.1-8.1C207.3,560.7,205.7,560,204.1,560.3ZM401.3,455.8a16.31,16.31,0,0,0-2.7,14c2.5-4.4,4-9,2.5-13.9,2.5-3.9,1.6-8.1.7-12.2a62.25,62.25,0,0,0-2,11.3C399.6,456.2,400.4,456.2,401.3,455.8Zm296.4,29.6c2.5-.3,6,1.4,6.8-2.4.5-2.5-2.2-2.8-4-3.3-4.2-1.1-.5,3.5-2.7,3.9a6.11,6.11,0,0,0-4.5-2.8C694,483.5,692.6,487.7,697.7,485.4ZM672,538.6c1,2.2-.5,4.3,1.6,4.7,1,.2,2.2-.3,2-1.6s1.6-2.3-.8-3.9-6.5-3.6-5.2-8.2c.1-.5-.3-1.6-.6-1.7-2.1-.5-1.6-1-1.1-3,1-3.9,1.8-8.4.6-12.1a39.79,39.79,0,0,1-1.6-14.1,17.79,17.79,0,0,0-1.4-8.2,41.38,41.38,0,0,1-2.8-9.7c-.1-.6,1.6-1.6-.2-2.5s-2.5.1-2.5,1.7-.7,2-2.2,1.7c-11.5-2.3-23.2-.9-34.8-1.1-10.3-.1-16.9,6.2-17.1,16.4-.2,11.1-.1,22.3,0,33.4,0,44.2.1,88.4,0,132.6,0,3.1.7,4.1,3.7,4.1,11.6-.2,23.2-.6,34.8-.3,7.2.2,14.7-2.1,21.7,1.4,1.5.8,2.4-.5,2.5-1.5a26.92,26.92,0,0,0,.1-7.5c-1.4-7-2.5-14-.2-21.1.7-2.1,2.3-4.2-.9-5.8-.3-.1-.4-.9-.4-1.4V604c2.4,1.2,1.8,3.1,2.4,4.6.3.8.4,1.5,1.6.9.8-.4,2.8-.1,2.3-1.1-2.6-5.2,3-2.4,4.2-4.2-2.7-1.3-4-4.1-7.2-4.1-2.8,0-3.5-1.7-3.5-4.2.1-13.4.1-26.9.2-40.3,0-3.7,2.1-4.8,5.5-4.3C670.5,547.7,670.1,543.8,672,538.6ZM432.1,665.2v.2h25.1c16.1-.1,32.2-.1,48.4-.3,7.4-.1,9.7-2.7,9.8-10.1.1-4.6.1-9.2.1-13.8.1-8-3.8-11.6-11.9-11.6-33.2.1-66.3.2-99.5.2-14.4,0-28.8-.2-43.2-.1-8.1,0-11.4,3.2-11.9,11.4-.2,4-.2,8-.1,12,.3,9.2,2.9,12,11.9,12.1C384.7,665.4,408.4,665.2,432.1,665.2Zm52.6-123.1v-.3h29.2c7.9,0,10.8-2.8,10.8-10.6,0-14.8-.1-29.6-.1-44.5,0-5.6-3.3-9.3-9-9.4-21-.2-42.1-.1-63.2-.2-1.7,0-2.6,0-2.6,2.3.2,19.7.2,39.3.2,58.9,0,3.2,1.4,3.9,4.3,3.8C464.4,542,474.5,542.1,484.7,542.1Zm-118.9-.6c3.8-1.4,6.8-2.6,10.1-.1.9.7,2.5.7,3.8.7q30.15,0,60.3.1c3,0,4.2-1.2,4.1-4.1-.1-3.3,0-6.5,0-9.8-.1-15.7-.4-31.5,0-47.2.1-3.8-1.3-4.2-4-4.2-4,.1-8,.3-11.9.3-16.5,0-33-.6-49.5.1-5.1.2-7.9,2.9-8.5,7.9-.2,2-.3,4-.3,5.9.2,16.8.8,33.7-4.1,50.4Zm-64.6-63.6h0c8.3,0,16.6.1,24.9-.1,6-.1,8.7-2.4,8.9-8.3.3-7.9,0-15.9-.2-23.8-.1-3.2-2-5-5.3-6.1s-6.5-.5-9.8-.6c-14.1-.4-28.3-.9-42.4.2-5.2.4-8.5,2.7-9,8a113.41,113.41,0,0,0,.2,23.3c.5,4.2,5,7.4,9.4,7.4,7.8.1,15.5,0,23.3,0ZM598.4,596.3h0c.1-5.6.1-11.3.1-17,0-3.7-1-8-4.5-8.7-10.5-2.1-21.3-2.5-31.8.1-3.8.9-5.4,4.6-5.4,8.7,0,10.8,0,21.5.2,32.3.1,8,3.3,11.8,10.2,12,7.3.3,14.5.3,21.8,0,6.8-.2,9.1-2.7,9.4-9.5C598.6,608.3,598.4,602.3,598.4,596.3ZM661,454.1c-.1,3.6-1.9,5.3-4.1,6.9-1.8,1.2-1.5,3.3-.8,5a3,3,0,0,0,3.1,1.9c2-.5,1.1-2.5,1.2-3.8a3.13,3.13,0,0,1,1.3-2.5C665.4,459.2,663.6,457,661,454.1ZM367.2,557.9c.3-2.2-2.5-2.6-3.4-2.8-2.9-.4-3.9,2.4-4.3,4.5-.6,2.7,3,2.5,3.8,2.6C365.5,562.6,367.5,561.1,367.2,557.9ZM211.9,452.3c-5.4,3-2.2,6-1.4,8.9C212.3,458.6,210.9,455.6,211.9,452.3Zm-10.5,213c-.3-.6-.2-2-1.4-1.3-1.6,1-3.7,1.8-3.9,4-.1,1.1,1,2.1,1.8,1.6C199.5,668.8,201.3,667.7,201.4,665.3ZM649.1,434.6c1.8-3.5,3.5-6.9.5-10.5Zm-444,44.8c-1.5.5-1.5,1.5-1.3,2.7s-1,3.3,1.2,3.6c2.6.4.3-4,3.2-3.7,0-2.1-2.7-.8-3.1-2.6ZM543.3,476c-2.1,3.8-2.6,6.5-2,9.3A14.51,14.51,0,0,0,543.3,476Zm-139-49.4c.4-1.3.5-2.9-1.5-3.2-.9-.1-1.9,1.1-1.2,2,1,1.3-.2,3.8,1.8,4C404.8,429.6,404.6,427.9,404.3,426.6Z" transform="translate(-12.34 -28)"/><path id="_rear_window_" data-name="&lt;rear_window&gt;" d="M656.6,512.1v13.4c-.1,8.9-2.4,11.5-11.3,11.8-7,.2-13.9.1-20.9.1-4.7,0-7.7-2.3-8-7-.8-11-1.3-22.1-.4-33.1.5-5.2,4.2-7.4,9-7.6q11.7-.3,23.4,0c5.5.2,8.2,3.6,8.1,9.1,0,4.4.1,8.8.1,13.3Z" transform="translate(-12.34 -28)"/><path id="_read_door_handle_" data-name="&lt;read_door_handle&gt;" d="M645.2,557.8a32.4,32.4,0,0,0,.2-4.4c-.5-3.6,1.5-4.3,4.4-3.9a20,20,0,0,0,2.4.4c2.6,0,6.3-1.7,7.5.9,1.9,4.1.8,9,.8,13.6,0,1-1,1.2-1.8,1.3-1.6.1-3.3.3-4.9.3C645.5,566,645.5,565.9,645.2,557.8Z" transform="translate(-12.34 -28)"/></g><g id="_front_tire_" data-name="&lt;front tire&gt;"><path id="_tire_" data-name="&lt;tire&gt;" d="M317.6,671.9c1.4,19.9-12.8,36.1-33.1,37-17.5.8-35.1-12.7-36.4-31-1.6-21.7,12-37.7,33.4-39.4C298.6,637.2,316.9,651.1,317.6,671.9Z" transform="translate(-12.34 -28)"/><rect x="308.03" y="648.03" width="2.2" height="5.6" transform="translate(-382 381.21) rotate(-45)"/><rect x="313.45" y="655.35" width="2.2" height="5.6" transform="translate(-299.28 217.45) rotate(-30)"/><rect x="316.32" y="663.99" width="2.2" height="5.6" transform="translate(-136.51 46.88) rotate(-11.27)"/><rect x="305.08" y="644.15" width="2.2" height="5.6"/><rect x="267.76" y="609.9" width="5.6" height="2.2"/><rect x="291.6" y="637.29" width="2.2" height="5.6" transform="translate(-416.91 708.03) rotate(-73.26)"/><rect x="300.76" y="641.72" width="2.2" height="5.6" transform="translate(-409.46 482.56) rotate(-54.06)"/><rect x="270.19" y="639.01" width="5.6" height="2.2" transform="translate(-193.07 84.47) rotate(-17.6)"/><rect x="313.64" y="684.41" width="5.6" height="2.2" transform="translate(-447.79 588.78) rotate(-60)"/><rect x="309.53" y="692.44" width="5.6" height="2.2" transform="translate(-444.83 511.29) rotate(-54.06)"/><rect x="301.76" y="700.45" width="5.6" height="2.2" transform="translate(-428.96 418.92) rotate(-47.09)"/><rect x="259.65" y="643.46" width="5.6" height="2.2" transform="translate(-371.56 303.72) rotate(-41.13)"/><rect x="252" y="651.58" width="5.6" height="2.2" transform="translate(-435.51 447.84) rotate(-54.06)"/><rect x="247.14" y="661.75" width="5.6" height="2.2" transform="translate(-469.14 683.3) rotate(-73.26)"/><rect x="245.29" y="671.08" width="5.6" height="2.2" transform="translate(-467.45 781.59) rotate(-80.8)"/><rect x="246.96" y="679.73" width="2.2" height="5.6" transform="translate(-207.06 78.92) rotate(-17.6)"/><rect x="251.31" y="690.07" width="2.2" height="5.6" transform="translate(-361.75 238.73) rotate(-34.68)"/><rect x="259.32" y="698.77" width="2.2" height="5.6" transform="translate(-472.77 472.59) rotate(-54.06)"/><rect x="292.9" y="706.08" width="5.6" height="2.2" transform="translate(-144.83 43.41) rotate(-11.27)"/><rect x="270.15" y="704.44" width="2.2" height="5.6" transform="translate(-472.88 483.69) rotate(-54.06)"/><rect x="280.59" y="708.58" width="5.6" height="2.2" transform="translate(-75.77 0.75) rotate(-5.22)"/></g><g id="_back_tire_" data-name="&lt;back_tire&gt;"><path id="_tire_2" data-name="&lt;tire&gt;" d="M591.6,675.2c1.4,19.9-12.8,36.1-33.1,37-17.5.8-35.1-12.7-36.4-31-1.6-21.7,12-37.7,33.4-39.4C572.5,640.6,590.8,654.4,591.6,675.2Z" transform="translate(-12.34 -28)"/><rect x="541.66" y="613.2" width="5.6" height="2.2"/><rect x="565.49" y="640.59" width="2.2" height="5.6" transform="translate(-225.06 972.66) rotate(-73.26)"/><rect x="574.67" y="645" width="2.2" height="5.6" transform="translate(-298.99 705.68) rotate(-54.06)"/><rect x="544.18" y="642.28" width="5.6" height="2.2" transform="translate(-181.24 167.45) rotate(-17.6)"/><rect x="581.94" y="651.32" width="2.2" height="5.6" transform="translate(-304.1 575.85) rotate(-45)"/><rect x="587.36" y="658.63" width="2.2" height="5.6" transform="translate(-264.22 354.85) rotate(-30)"/><rect x="590.25" y="667.27" width="2.2" height="5.6" transform="translate(-131.87 100.47) rotate(-11.27)"/><rect x="579.01" y="647.43" width="2.2" height="5.6"/><rect x="533.5" y="646.82" width="5.6" height="2.2" transform="translate(-306.18 484.68) rotate(-41.13)"/><rect x="525.94" y="654.89" width="5.6" height="2.2" transform="translate(-325.05 670.99) rotate(-54.06)"/><rect x="521.07" y="665.03" width="5.6" height="2.2" transform="translate(-277.26 947.94) rotate(-73.26)"/><rect x="519.13" y="674.35" width="5.6" height="2.2" transform="translate(-240.63 1054.64) rotate(-80.8)"/><rect x="520.88" y="683.01" width="2.2" height="5.6" transform="translate(-195.24 161.88) rotate(-17.6)"/><rect x="525.21" y="693.36" width="2.2" height="5.6" transform="translate(-314.95 395.16) rotate(-34.68)"/><rect x="533.32" y="702.12" width="2.2" height="5.6" transform="translate(-362.31 695.79) rotate(-54.06)"/><rect x="587.52" y="687.78" width="5.6" height="2.2" transform="translate(-313.77 827.66) rotate(-60)"/><rect x="583.39" y="695.69" width="5.6" height="2.2" transform="translate(-334.35 734.35) rotate(-54.06)"/><rect x="575.69" y="703.75" width="5.6" height="2.2" transform="translate(-343.96 620.6) rotate(-47.09)"/><rect x="554.48" y="711.89" width="5.6" height="2.2" transform="translate(-74.94 25.7) rotate(-5.22)"/><rect x="544.06" y="707.72" width="2.2" height="5.6" transform="translate(-362.41 706.81) rotate(-54.06)"/><rect x="566.79" y="709.38" width="5.6" height="2.2" transform="translate(-140.19 96.99) rotate(-11.27)"/></g><g id="_livin_" data-name="&lt;livin&gt;"><path d="M225.74,350c.18,1.08.45,2.14.53,3.22,1,13.06-2.93,24-14.25,31.41-5.62,3.67-12.14,5.1-18.75,6-2.71.36-4.86-1.25-7.15-2.23-.71-.31-1.09-1.58-1.43-2.48q-5.61-14.85-11.15-29.72c-2.31-6.2-4.58-12.41-6.88-18.61a7.58,7.58,0,0,0-.82-1.25,20.75,20.75,0,0,0-1.16,9.65c.49,4.63-.93,6.37-5.64,6.21-8-.26-12.24-4-13.28-12.68-.69-5.78,1.28-10.94,4.76-15.42,8.85-11.4,20.6-16.59,35-15.62,4.64.32,9.14,1.25,13.06,4.11a68.66,68.66,0,0,0,6.29,3.65c4.84,2.77,8.68,6.62,12.35,10.87-.64-1.35-1.3-2.7-1.92-4.05-2.25-4.84-1.75-7.63,2.57-10.6,9.53-6.56,19.65-8.15,30.22-2.53a18.76,18.76,0,0,1,7.6,7.62,71.32,71.32,0,0,1,.45-7.93,18.43,18.43,0,0,1,30.09-11.3,23.86,23.86,0,0,1,8.6,13.36c1.24,5.28-.44,9.65-4.22,13.16-2,1.83-4.52,3.08-6.83,4.55a24,24,0,0,1-2.33,1.14c2.43,3.88,5.33,4.21,8.31,1a12.54,12.54,0,0,0,1.62-2.47c1.28-2.28,2.27-2.59,4.39-1.22a31.8,31.8,0,0,1,2.46,2c-.32-2.41-.59-4.22-.8-6q-1.62-14.64-3.21-29.27c-.16-1.42-.21-2.87-.48-4.27-1.32-7.07,3.36-14.86,10.9-17.17,4.06-1.24,7.88,0,11.4,2,4.32,2.51,7.11,6.52,9.85,10.54,3.11,4.56,6.14,9.17,9.25,13.72a11.66,11.66,0,0,0,3.41,3.41c-.31-.78-.59-1.58-.94-2.35q-8.84-19.23-17.68-38.45c-1.89-4.11-1.76-5,1.37-8.15.78-.78,1.61-1.51,2.45-2.23,4.84-4.14,9.63-3.8,13.81,1s8.48,9.87,12.72,14.81c.49.57,1,1.09,1.83,1.92-1-6.13-1.87-11.83-2.7-17.55-.68-4.69-1.2-9.4-1.9-14.09a4.25,4.25,0,0,1,2-4.53,43.17,43.17,0,0,1,5.09-3.06c5-2.37,9.64-1.14,12.51,3.66,2.66,4.44,4.83,9.16,7.25,13.74,4.48,8.48,8.94,17,13.52,25.39a45.27,45.27,0,0,0,3.65,5c2.16-1,2.69-2.68,3.33-4.3,1.24-3.11,2.22-3.37,4.65-1a14.21,14.21,0,0,1,4.13,14.82c-1.57,5.7-5.29,9.28-11.3,10.24-3.5.56-6.67-.14-9.12-2.72a47,47,0,0,1-5.34-6.68c-2.26-3.5-4.22-7.19-6.91-10.62.52,3.25,1,6.51,1.56,9.75.42,2.5.86,5,1.44,7.47a3.46,3.46,0,0,1-1.52,4c-2.14,1.56-4.17,3.27-6.32,4.81s-6.42.82-8.44-1.43c-2.65-2.95-5.17-6-7.76-9a6.06,6.06,0,0,0-2.08-1.68c.21.71.36,1.43.63,2.12q2.65,6.78,5.34,13.53c1.35,3.39,1.36,3.4-1.56,5.7a3.58,3.58,0,0,1-1.31.39l.63.64c.05.08.08.23.15.24,4.19,1.09,4.85,2.08,3.79,6.22a9.57,9.57,0,0,1-7.47,7.19,13.92,13.92,0,0,1-12.51-2.41c-1.81-1.42-3.58-2.88-5.66-4.55-5.08,2-10.29,4-15.52,6a3.23,3.23,0,0,0-2.32,3.24c-.07,5.72-2.26,5.88-6.92,7a16,16,0,0,1-2.83.18c-.58,5.06-3.91,8-8,10.21a20.46,20.46,0,0,1-13.81,1.94c-9.51-1.67-15.07-8.09-19.45-16-.32-.57-.63-1.14-1-1.7,0-.08-.19-.09-.55-.24a54.5,54.5,0,0,1-1.1,5.41,50.78,50.78,0,0,1-2.12,5.07c5.46,4.17,10.89,8.52,17.27,11.33,4.25,1.87,8.53,2.11,12.26-1.59,1.4-1.38,5-.47,6.31,1.59a7.81,7.81,0,0,1,1.22,3.67c.26,5.76-3.44,10.76-9.35,12.54a25.88,25.88,0,0,1-21.92-3c-5.39-3.34-9.66-8-14.16-12.39a6.22,6.22,0,0,1-.94-1.77l-.88.66c.22.62.41,1.26.67,1.87,1.75,4.05,3.57,8.06,5.24,12.14,1,2.33.54,3.2-1.79,4-2.69.95-5.41,1.85-8.17,2.59-2.39.65-6.38-1.28-7.41-3.64-2.15-4.95-4.16-10-6.22-15-.7-1.71-1.39-3.43-2.08-5.14Zm39.88-50.77c-2.4.63-3.59,2.57-4.81,4.48-3.65,5-3.67,10.54-2,16.26a27.36,27.36,0,0,1,2.3-16l4.43-4.83,4.06-2h7.62c0-.29,0-.57-.05-.85l-7.5.93A4.09,4.09,0,0,0,265.62,299.21Zm-24.53,48.35c-1.58.07-1.74,1.08-1.35,2.25a36.36,36.36,0,0,0,1.57,3.39c-.1-2.2-.19-3.95-.27-5.7l3.13-.39C242.82,345.89,241.85,346.29,241.09,347.56ZM364.36,238.31a7.78,7.78,0,0,0-3.41-5.43l.11.11c-1.33-2-2.32-2.5-4.21-1.77a49.35,49.35,0,0,0-4.39,2.27c-2.35,1.21-3.13,3-2.7,5.66,1.53,9.78,2.88,19.59,4.3,29.39.31,2.18.64,4.35.9,6.53.1.86-.13,1.56-1.27,1.22L351.75,275c-.69-2.63-2.62-4.24-4.71-5.72l.11.11a9,9,0,0,0-.9-1.65c-2.46-2.82-5-5.59-7.45-8.39-2-2.31-4-4.69-6.12-6.93s-3.87-2.43-6.37-.51a32.38,32.38,0,0,0-4.56,4.28c-1.81,2.06-1.33,4,1.21,5.89l.24,1.08a15.83,15.83,0,0,0,.66,2.5q8.22,18.45,16.52,36.88c.62,1.37,1.41,2.65,2.12,4l-.09-.15c.56,1.61,1.12,3.23,1.86,5.34l6.09-3.05-2.65-4.95.09.16-4.73-12.08.09.15-2.07-5.45.09.15-2.45-8.43,3.79,2.45-.11-.12a12,12,0,0,0,4.74,5.42l-.1-.12c.06.31,0,.72.2.92q5.73,6.63,11.54,13.2a22.52,22.52,0,0,0,2.3,2c1.61-1.34,3-2.63,4.49-3.69,2.36-1.67,3.82-3.55,2.68-6.63a15.94,15.94,0,0,1-.6-3.25c-1.24-8.39-2.46-16.78-3.73-25.17-.19-1.24.54-1.51,1.43-1.77.3.58.6,1.17.91,1.75q3,5.44,6.05,10.88l-.1-.12,2.75,4.77-.1-.14c1.73,4.7,4.58,8.74,7.62,12.64a14.56,14.56,0,0,0,3.69,3.26,5.87,5.87,0,0,0,6.71,0l-.15.1c4.54-1.65,6.57-5.36,7.35-9.71a10.61,10.61,0,0,0-3.55-10.08l-1.79,4.56.1-.11a9.85,9.85,0,0,0-1.68.75,4.37,4.37,0,0,1-4.56.42c-.58-.25-1.2-.4-1.81-.6l-2.89-5.13-4.38-7.7-2.91-6.21-3.72-6.1c-.3-.84-.61-1.67-.92-2.5L369.59,248l-.92-2.49c-.62-1.27-1.16-2.59-1.88-3.79s-1.67-2.4-2.52-3.59ZM223.65,337.19l-1.05-4.32-.76.27,1.87,4,3.47,8.45c.82,4.63,3.34,8.58,4.95,13.47.25-.86.41-1.1.35-1.26-1-2.56-1.95-5.13-3-7.65-.67-1.55-1.55-3-2.34-4.51A15.39,15.39,0,0,0,223.65,337.19Zm22.15,8.29c-1-2.12-1-2.12-2.68-1.31l2.77,1.21c.85,2.94,3.32,4.37,5.28,6.26l.55-.53Q248.77,348.29,245.8,345.48Zm-36.5,31.24L198,382.2a25.05,25.05,0,0,0,11-4.73c.2-.14.21-.54.3-.82,2.11-.77,2.11-.77,3.17-3.25Zm64.63-36.82-5.53-5.09c-.49-.84-.95-1.72-1.5-2.52-4.25-6.21-6.58-12.9-5.33-20.53a22.4,22.4,0,0,0,0-3c-3.21,8.4.22,20.21,6.52,26.36,1.29,1.47,2.51,3,3.9,4.36.4.39,1.31.25,2,.35,0,.41-.18,1,0,1.18,3.58,2.59,7.29,4.74,12,2.87C281.59,343.6,277.26,343.28,273.93,339.9Zm-30.19,28.86-5.57,1.05-4-7.51c.23,3.19,1.66,5.82,3.33,8.41,2.23-.45,4.52-.18,6.14-2l4.18-1.26-3-6.88-.51.18,2,6.12Zm51.72-28.45c-4.17,4-9,6.28-15,5.79a3.74,3.74,0,0,0-1.23.39c-.69-.54-1.35-1.13-2.08-1.6-1.84-1.2-4-2.07-5.5-3.56-2.65-2.61-4.94-5.6-7.38-8.42-.35-.41-.72-.8-1.08-1.2,3.27,7.29,7.95,13,16.12,14.7,6,1.6,11.1-.08,15.36-4.48a5.07,5.07,0,0,0,.68-1.68c1.87-2.71,1.72-5-.53-8l-1.49-2.45c-3.38,5.59-8.61,7.95-13.7,5-1.77-2-4.37-3.74-2.68-7.09-2.33,1.05-2.55,1.18-1.53,2.83a37.67,37.67,0,0,0,3.91,4.59,7,7,0,0,0,6.58,2.13,9.38,9.38,0,0,0,7.15-5.73l1.55.88A13.06,13.06,0,0,1,295.46,340.31Zm-84.94,38.28-14.78,6.9c5.76-1.07,10.87-2.72,15-6.65a8.62,8.62,0,0,0,4.07-4.48Zm60.58-15.35-4.39-1.68c2.05,1.86,2.05,1.86,4.48,1.6.07.2.11.53.23.57,3.21.89,6.5,1.29,9.68.13a7.14,7.14,0,0,0,5.13-6.13l-2.33,1.12c-.09,1.06.09,2-.24,2.23a7.82,7.82,0,0,1-3.42,1.82C277.23,363.22,274.17,363.14,271.1,363.24Zm41.48-72.07.11.13a16.69,16.69,0,0,0-2.35-3.38c-.8-.7-2.27-1.37-3.12-1.09a3.64,3.64,0,0,0-1.8,2.74,46.31,46.31,0,0,0,2,17l-.07-.16c.11,3.14.31,6.26,1.77,9.31a23.41,23.41,0,0,0,2.78-.94c1-.47,1.85-1.1,2.77-1.66l4.61-1.61c1.69-.85,3.7-1.2,5.09-3.25-.73-.64-1.4-1.22-2.06-1.81a29.12,29.12,0,0,0-1.51-3.19c-1.65-2.7-3.39-5.33-5.09-8Zm-10,21.58c-1.21,2.47-1.21,5.89,0,9.76v-9.76c-.64-4.79-1.3-9.57-1.9-14.37-.54-4.34-1-8.69-1.58-13.75a9.58,9.58,0,0,0-.35,1.89c.9,8.42,1.81,16.83,2.78,25.24C301.56,312.12,302.25,312.41,302.6,312.75ZM273,320.35l-.15.08c3.69,0,6.78-1.55,9.61-3.73a3.12,3.12,0,0,0,1.07-1.54c1.07-3.93-2.22-10.32-6-11.8a4.16,4.16,0,0,0-5.28,1.5l-3.27,2.55c-2.58,5-1.22,9.68,1.45,14.55Zm-57.65,21.13c.46,2.69,1.06,5.36,1.34,8.07.45,4.36.69,8.75,1,13.28.1-1.89.18-3.64.28-5.38a33.74,33.74,0,0,0-2.73-15.9c-1.89-9.67-6.67-17.39-15.34-22.37-1.45-.84-2.89-2.12-5.18-1.89a8.45,8.45,0,0,0,1.12.76c6.49,2.72,11.06,7.52,14.42,13.54C212.06,334.82,213.64,338.18,215.32,341.48Zm114.39-24.93a13.34,13.34,0,0,0,6,5.31l-5.73-5.6c-.6-1.74-1.76-1.17-2.91-.71-5.31,2.12-10.64,4.15-15.91,6.35-5.63,2.36-4.75,1.65-4.49,7.14.14,2.89-.4,3.7-3.12,4.54a21,21,0,0,1-2.51.42c5.1.51,6.79-1,6.53-5a9.65,9.65,0,0,0-.08-1.32c-.42-2,.48-3.15,2.21-3.86,5.69-2.32,11.38-4.66,17.09-6.91A11.31,11.31,0,0,1,329.71,316.55ZM149.28,342.66c-.87,2.53.87,4,2.49,5.18,2.45,1.75,5.15,1.38,7.64.08-.19-2.71-.57-5.23-.49-7.73a63.18,63.18,0,0,1,1-7.26c-2.35,4.27-2.62,6-1.86,11.2.17,1.16.67,2.47-.57,3.36a4,4,0,0,1-4.09.1c-2.2-.94-3.31-2.81-4.18-4.88.09-2.52-.25-5.15.35-7.55,2.14-8.61,7.55-14.91,15.2-19.09,9.6-5.24,19.6-5.41,29.68-1.23,2.19.92,4.34,1.93,6.51,2.89a21.92,21.92,0,0,0-11.5-5.87c-14.9-3-27.12,1.59-36.75,13.28a19.94,19.94,0,0,0-4.35,16.09C148.43,341.74,149,342.17,149.28,342.66Zm22.42,1.4,1.13,4.91.79-.24-2-4.61c-.54-1.9-1-3.82-1.62-5.7a2.33,2.33,0,0,1,.46-2.73,10.83,10.83,0,0,1,6.14-3,3.52,3.52,0,0,1,3.82,2,50.39,50.39,0,0,1,2,4.88c3.62,10.27,7.2,20.55,10.81,30.83.5,1.42,1.14,2.8,1.68,4.13,5.17-.59,8.4-2.51,10-5.89-2.88,2.08-5.24,5-9.36,4.57-.37-.81-.79-1.57-1.08-2.38q-3.19-9-6.35-18.05c-2-5.81-4-11.65-6.12-17.43-1.36-3.68-3.25-4.47-7-3.33a15.52,15.52,0,0,0-6.78,4.07c.55,1.6,1,3.18,1.65,4.69C170.42,342,171.12,343,171.7,344.06ZM167,334c2.13-1.14,4.08-2.35,6.17-3.26,5.93-2.57,11-.55,13.57,5.34.27.61.46,1.24.68,1.87q5.45,15.24,10.89,30.49a16.8,16.8,0,0,0,.93,1.85c4.31-2.82,6.72-6.44,6.85-11.31.21-8.15-2.81-15.29-7.22-21.94a33,33,0,0,0-9.94-10c-3.37-2.11-7.1-3.4-11-2.28A19.76,19.76,0,0,0,167,332.94C166.88,333.16,167,333.55,167,334Zm183.69-17.34c-4.48-.11-7-.94-9.74-4.11-4.07-4.78-7.92-9.75-11.64-14.8-3.86-5.23-7.29-10.78-11.23-16a34.61,34.61,0,0,0-6.32-5.73,6.16,6.16,0,0,0-5-1,12.77,12.77,0,0,0-10.8,13.59c.08,1.22.2,2.42.32,3.63.6,6.48,1.15,13,1.82,19.42.43,4.14,1,8.27,1.56,12.4a17,17,0,0,0,.14-5.23c-.52-5.37-1.13-10.74-1.62-16.12-.41-4.5-.37-9.07-1.12-13.5-.93-5.44,1.67-8.88,5.6-11.75a6.75,6.75,0,0,1,6.31-1.07,15.52,15.52,0,0,1,5.2,2.7A40.08,40.08,0,0,1,320,285.8c5,7.13,9.7,14.48,14.79,21.55,3.75,5.22,8,10,15,11.06-.19,2.65-1.38,4.56-3.56,5.32a37.2,37.2,0,0,1-6.54,1.08,7,7,0,0,0,8.29-.7A7.35,7.35,0,0,0,350.66,316.64Zm-63.48,36.95a2.5,2.5,0,0,0-.62.2c-.28.17-.51.42-.8.58a14.65,14.65,0,0,1-13.3,1.29c-8.4-3.19-14.63-9.53-21.52-14.66.23-1,.37-1.63.69-3-1.18,1.5-1.85,2.35-2.46,3.11,4.23,3.38,8.21,6.85,12.49,9.9a53.13,53.13,0,0,0,9.75,5.49c4.86,2.07,9.84,2.38,14.51-.83.24-.16.63-.1,1.4-.2.21,1,.8,2.08.55,2.93a10.51,10.51,0,0,1-2.16,4.31c-4.06,4.28-9.24,4.76-14.67,3.65-4.85-1-9-3.48-12.82-6.56-.68-.56-1.43-1-2.16-1.54a26.38,26.38,0,0,0,15.19,9.45c5.71,1.19,11,.27,15.15-4.25C289.26,360.3,289.44,356.72,287.18,353.59ZM239.47,336c4.29-2.65,5.51-6.2,3.87-9.82-1.47-3.23-4.27-4.09-8.82-2.53C236.13,327.69,237.74,331.7,239.47,336Zm7.37-23.14A11.83,11.83,0,0,0,240,309c-6.45-1.34-12.45,0-18.13,3.12a23.36,23.36,0,0,0-4,2.81,4.09,4.09,0,0,0-1.29,5c.75,1.78,1.44,3.59,2.16,5.39a9.52,9.52,0,0,0-.91-4.4c-1-2.27-.33-4,1.46-5.55C226,309.72,237.45,306.46,246.84,312.87Zm93.74,3.73a40.89,40.89,0,0,1-3.87-4c-4.74-6.49-9.38-13-14-19.6a9,9,0,0,0-2.59-2.85,3.5,3.5,0,0,0,.62,1.87q6.12,9,12.26,18A19,19,0,0,0,340.58,316.6Zm-162.74,5.07,1.6.09a22.15,22.15,0,0,1,14.82,6.32c1.87,1.84,3.59,3.84,5.28,5.86,1.17,1.41,2.17,3,3.25,4.46C199,327.12,186.73,319,177.84,321.67Zm36.8,10.78c3.75,12.11,7.48,23.93,3.33,36.49C223.36,360.45,219.64,339.39,214.64,332.45Zm-16.73,47.28c11.12-2.15,19.53-11.28,17.76-22.64-.77,3.21-1.58,6.38-2.29,9.57a10,10,0,0,1-4.65,6.55C205.1,375.46,201.42,377.62,197.91,379.73Zm54.21-51.79c.6-11.17-9.21-18.85-20.79-16.26,4.95,0,9.88-.2,14,3.37S250.64,323.24,252.12,327.94Zm-9.26-6.38c-3.14-3.76-10.08-3.85-14.42-.16l3.54,8.53.57-.21c-.94-2.6-1.89-5.21-2.91-8C234.22,319,238.45,318.79,242.86,321.56ZM204.36,341c1.17,3.95,2.47,7.87,3.45,11.87a21.51,21.51,0,0,1-.1,12.11C211.14,356.44,208.18,348.68,204.36,341Zm-48.89,4c-3-1-3.89-2.38-3.63-6.71a54,54,0,0,1,1.54-7.65A15.52,15.52,0,0,0,151.05,342c.46,3.09,2.13,4.28,5.36,4-.1-1.91-.21-3.84-.31-5.76h-.36Zm91.22-16.65c-.88,6.77-5,9.77-11,11.8C242,340.52,247.13,335,246.69,328.35Zm5.91,8.06A17.88,17.88,0,0,0,251.33,318,22.54,22.54,0,0,1,252.6,336.41Zm-28.73-11.92L223,325c1.91,4.19,3.19,8.66,5.53,12.66l.8-.35Zm41.2-4c1,5.44,3.69,10.14,6.92,12.51Zm-36.46,10.59-.66.27L234,346A68.66,68.66,0,0,0,228.61,331.08ZM176.09,347.9l-.85.39,4.68,12.37.85-.32Zm109.62-28.43c2.92-3.14,3.09-6.65.42-11.62C287,312.13,287.7,315.87,285.71,319.47ZM187.4,386.9l3.46-.46,0-.27-2.43-.33-3.83-8.12-.65.3Zm-2-13.78c.79,4.68,2.75,8.9,4.72,10.67Zm45-27.77-.7.41q2.1,5.31,4.22,10.62l.68-.26Zm94.29-42.05.75-.5q-3.11-4.64-6.22-9.28l-.64.43Q321.59,298.63,324.66,303.3ZM192.59,375.75l.77-.3-4.07-10.83-.59.21Zm38.88-60a10.73,10.73,0,0,0-7.13,3c-1.15,1-1,2,0,3.07C224.89,317.92,228.29,317.45,231.47,315.74Zm35-7.78c-1.28,2.67-2,5.38-.46,8.44C266.17,313.39,266.32,310.67,266.47,308Zm40.27,11.24,3.95-1.21c-4.29-.1-3.5-3.25-4.79-5.1C306.15,314.79,306.41,316.7,306.74,319.2Zm-66,46.22.83-.16c-.17-2.88-1.57-5.35-2.92-7.85a22.63,22.63,0,0,0,.79,3.76C239.89,362.59,240.34,364,240.78,365.42Zm104.81-45.66c-.7.67-1.3,1.6-2.13,1.92a14.19,14.19,0,0,1-3.66.32C343.62,323.61,344.61,323.24,345.59,319.76Zm-70.65,40-8.16-2.94A10.86,10.86,0,0,0,274.94,359.76Zm30.19-37.67c-1.75,2.79-.6,5,0,7.21Zm-141.35-3.73.29.64c1.15-.54,2.32-1,3.45-1.61s2.26-1.26,3.38-1.9l-.31-.56Zm38.84,13.3-.61.5q1.74,3.1,3.5,6.2l.66-.36C205,335.89,203.8,333.77,202.62,331.66Zm-22,8.76-.48.35,2.1,6.13.61-.21Zm-3.74,5.23.65-.27q-1.2-3-2.42-6.05l-.78.32Zm126-63.45,5.47-.55C306.2,280.36,304.58,280.22,302.83,282.2Zm1.85-3.91c1.57.3,2.61.43,3.62.7s2.07.68,3.1,1C309.68,278,307.61,277.5,304.68,278.29Zm-3.29,8a9.16,9.16,0,0,0,0,6.34ZM176,319.07l.22.67,6.06-.63-.08-.75Zm.74,17.86-.66.37,2.31,4.9.59-.27ZM285,339.82l.15-.63-5.54-1-.1.53Zm-5.58.43c1.57,1.82,3.62,1.84,6.41,1Zm62.69-19.67.46-.86c-1.69-.08-2.64-1.94-4.67-1.27Zm-39.39-31.19.77.16,1.17-3.82-.81-.23C303.5,286.79,303.12,288.09,302.75,289.39ZM278.5,301l-.4.56,3.81,2.65.38-.62Zm-28.78,26.43-.57-.08-.74,4.91.59.08Zm-30-9.78-.45,0v2.85h.45Zm26.06,24.27,1.86-2.45C246.7,340,245.54,340.38,245.81,341.87Zm27.82-9.74.51-.46-1.77-2.5-.48.36Zm-39.18,2-.69.21c.49,1.07,1,2.15,1.46,3.23l.45-.19C235.26,336.31,234.86,335.23,234.45,334.14Zm59.5,4.68c.08-1.91.63-3.24-1.33-4.69ZM193,381.46l-2.66-1.5C190.86,381.31,191.3,382.08,193,381.46ZM261.74,330l.62-.38c-.54-1.18-1.07-2.35-1.6-3.53l-.58.24Zm-39.13-1.81.49-.13-1.35-3.27-.55.22Zm46.66-29,.14.59,3.79-1-.14-.56Zm20.61,12.52h-.12v3.34H290C290,314,289.93,312.88,289.88,311.77Zm25.79-28-1-2.54-.43.44C314.67,282.3,315.12,283,315.67,283.75Zm-71.25,82.36-.45-.65-2.52,1.6.28.48Zm85-57.54-.82.19a12.6,12.6,0,0,0,.51,1.5A4.68,4.68,0,0,0,330,310C329.8,309.54,329.61,309.06,329.43,308.57Zm-148.51,7.69,0-.23h-3.11l0,.38Zm57.87,26-3.11.4C237.23,343.89,238,343.23,238.79,342.24ZM267.4,360.1l.2-.46-2.36-1.11-.19.42Zm49.37-69.29.66-.3c-.52-1-1-2.06-1.57-3.09l-.54.26ZM178.53,336.26l.37-.57c-.64-.77-1.23-1.61-2.94-1.11Z" transform="translate(-12.34 -28)"/><path d="M229.91,214.28c-.27-3.26-.49-6.53-.83-9.79-.72-6.91-1.57-13.8-2.24-20.71-.7-7.31-.36-14.57,2.36-21.49a17.51,17.51,0,0,1,12.94-11.21c5.27-1.22,12.22,1.89,14.8,6.52a9.42,9.42,0,0,1,1.09,3.09c.31,1.94-.19,2.62-2.14,2.92-5.35.83-8.45,4.45-10.85,8.8-2.69,4.9-3.15,10.37-2.77,15.76.57,8,1.67,16,2.53,24,1,9.42,2,18.85,3,28.26.19,1.7-.19,2.72-1.88,3.29a13.94,13.94,0,0,0-3.54,1.76c-3.59,2.53-7.34,1.72-11,.43a10.41,10.41,0,0,1-3.55-2.85c-6.77-7.09-13.47-14.25-20.21-21.36-4-4.24-8.09-8.43-12.13-12.64-1.68-1.75-1.83-2.57-.68-4.69a22.67,22.67,0,0,1,8-8.15,7.93,7.93,0,0,1,6.72-.64,17.38,17.38,0,0,1,8.79,5.57q5.45,6.63,10.93,13.21Zm14.56-54.94-.13.11a4.82,4.82,0,0,0,3.52-2.3,8.16,8.16,0,0,0-6.47.28L238.15,160c-.72.61-1.72,1.08-2.08,1.85a31.45,31.45,0,0,0-2.13,5.87,59.23,59.23,0,0,0-1,22l2.19-15.29.6-1.42,2.69-7.36.6-.71Zm-9.53,51.29v-5.14l-.6,0c.21,1.68.43,3.37.65,5.05.1,2.51.09,5,.32,7.53s-.49,5,.94,7.32c0-4.79-.46-9.53-.92-14.28C235.31,211,235.07,210.81,234.94,210.63Zm-8.28,26.15a40.41,40.41,0,0,0-8-8.3,42.13,42.13,0,0,0,7.67,8.6c1.5,1.71,3.06,3.38,4.5,5.15a3.58,3.58,0,0,0,4.39,1.14c1.11-.38,2.18-.85,3.26-1.28a2.82,2.82,0,0,0-2,.08,4.83,4.83,0,0,1-5.81-1.63A38.11,38.11,0,0,0,226.66,236.78Zm-12.83-28.93,2.9,3.89.65-.55L214,207.67c-1.19-1.55-2.3-3.17-3.6-4.62-2.06-2.3-3.79-2.6-6.36-.94a19,19,0,0,0-3.51,3.38c-.21.24.1.95.16,1.45a1.54,1.54,0,0,0,.7-.9c1.91-4.25,5.86-5,9-1.64C211.53,205.57,212.7,206.7,213.83,207.85ZM239.5,214l.21-3.8h-.62l.45,3.74c.9,8.9,2.1,17.77,2.11,26.77,1.38-.33,1.12-1.44,1-2.55-.58-6.23-1-12.49-1.79-18.7C240.64,217.68,241.15,215.52,239.5,214ZM198.83,203.9a40.24,40.24,0,0,1,4.54-3.74c3-1.86,5.58-1.39,8,1.16.84.88,1.59,1.83,2.41,2.73,1.76,1.95,3.53,3.88,5.3,5.83,2.06,3.5,4.92,6.28,7.65,9.18l.61-.53-8-8.92c-2.64-3.34-5.19-6.75-7.94-10a5.33,5.33,0,0,0-6.6-1.43,11.66,11.66,0,0,0-6.27,5.48c-1.21,1-2.27,2.11-1,4Zm39.61-.46c-.06-1.41-.1-2.83-.19-4.24-.34-5.39-.82-10.77-1-16.16a27.9,27.9,0,0,1,3.3-14.31c2.64-4.91,6.3-8.5,12.28-8.81.14,0,.27-.27.41-.42a8.11,8.11,0,0,0-7.33-6.06c-5.69-.49-9.74,2.32-12.69,6.84a25.65,25.65,0,0,0-3.94,15.49c.48,10.23,1.44,20.44,2.18,30.67.32,4.39.63,8.79.87,13.19a11.59,11.59,0,0,1-.49,2.59l-3.14-1.74-.29.48,5.15,5.15c.09-1.43.2-2.06.16-2.69-.49-7.26-1-14.51-1.52-21.77-.53-7.48-1.25-15-1.52-22.43a44.48,44.48,0,0,1,2.8-16.22c1.78-5.06,5.59-7.48,10.58-8.31a6.84,6.84,0,0,1,7.62,3.88,3.85,3.85,0,0,1-1.1.64,14.76,14.76,0,0,0-10.49,8.35,35.34,35.34,0,0,0-2.93,8.71C235.41,185.38,236.81,194.43,238.44,203.44ZM210,215l-.58.58a4.28,4.28,0,0,0,.49.8c7.17,7.46,14.32,14.94,21.55,22.35,2.55,2.61,4.53,2.52,7.85-.23-.82,0-1.51-.21-2,0-2.67,1.39-4.54.46-6.32-1.69-2.17-2.63-4.47-5.17-6.85-7.61C219.47,224.41,214.7,219.71,210,215Zm-5.68-9.47c5.44,1.92,8.5,6.68,12.87,9.83-2.9-3.68-6-7.12-9.25-10.47C206.68,203.59,205.39,203.73,204.29,205.5Zm1.69,2.95-.46.51,13.1,12,.45-.5C214.7,216.45,211.34,211.34,206,208.45Zm30.16,19c-2.68,1.22-2.87,1.24-4.3-.07s-2.9-2.78-4.34-4.18a21.79,21.79,0,0,0,7.06,7.41Zm-30-12.39-.87.83c1.46,1.28,3,2.53,4.38,3.86s2.59,2.58,3.88,3.88l.52-.57Zm30.2,21.62-4.29-1.49C234.16,237.94,234.16,237.94,236.38,236.66Zm-14-19.44c.55,1.55,1.22,2.92,2.95,3.19Q223.84,218.82,222.37,217.22Zm12.76,16.95.44-.76-3.38-1.58-.22.43C233,232.9,234.07,233.54,235.13,234.17ZM239,226h-.3v3.83h.3Zm-18.94-10.42.63-.49-2.26-2.53-.46.37Zm17.31.49h.29l-.11-2.31h-.18Z" transform="translate(-12.34 -28)"/><path d="M273.74,211.68c.84-1.1,1.47-2.68,2.59-3.17s2.73.08,4.61.21c-.41-1.07-.77-2.12-1.22-3.14-5.06-11.5-10.17-23-15.19-34.51-1.77-4-1.39-5.66,2.32-8a37.25,37.25,0,0,1,8.31-3.95,10.79,10.79,0,0,1,10.55,2.24c3.81,3.18,7.45,6.55,11.14,9.86a34.54,34.54,0,0,0,5.9,4.63L301.68,173c-1.63-4.22-3.21-8.45-4.9-12.64-1.23-3-.19-5.4,2.07-7.36a17.28,17.28,0,0,1,8-3.85,6.17,6.17,0,0,1,7.52,4.28c3.26,9,6.43,18.07,9.72,27.07,1.46,4,3.13,8,4.7,11.93,3.79-1.43,4.42-2.33,4.43-5.83,0-1,.14-2.06.21-3.12,6.19.93,9.93,5,10.7,11.22,1.15,9.23-5.73,18-13.24,20.34a14.92,14.92,0,0,1-14-3c-5.56-4.51-10.75-9.46-16.09-14.23a10.28,10.28,0,0,0-3.29-2.24c.92,2.2,1.85,4.39,2.78,6.59,2.14,5.07,4.32,10.14,6.43,15.23,1.4,3.39,1.15,4.06-2.05,5.8-4.57,2.49-9.34,3.28-14.26,1.19a7.81,7.81,0,0,1-2.89-2.45,33,33,0,0,1-2.4-4.4c-.19,1.45-.3,2.14-.37,2.83-.62,6.23-5.41,10.11-11.28,12-5.09,1.67-13.71-2.09-15.94-7.4-2-4.77-4-9.57-5.64-14.47-2.54-7.51-4.83-15.12-7.14-22.71-1.07-3.51-.3-6.65,2.84-8.75a29.61,29.61,0,0,1,6.19-3c3.17-1.16,8.53,1.34,9.5,4.75.79,2.75,1.65,5.48,2.44,8.23,1.79,6.25,3.53,12.51,5.35,18.75a29.22,29.22,0,0,0,1.53,3.5Zm61.39-21.77.07-.1a20.51,20.51,0,0,1-1.22,1.9c-2.51,3.08-6.37,5.53-9.59,1-.11-.15-.38-.18-.57-.27L323,189.9q-7.31-19.11-14.59-38.21a8.93,8.93,0,0,0-9,5.11l.09-.14c-1.16,1-.76,2.17-.34,3.27q1.65,4.4,3.46,8.74c.22.53.79.91,1.19,1.36.25.82.42,1.67.74,2.46,1.59,3.9,3.22,7.79,4.83,11.69l-.43,2.78c-1.56-1.39-2.76-2.44-3.94-3.52-7.22-6.61-14.46-13.19-21.62-19.86a8.09,8.09,0,0,0-9.11-1.81,29.11,29.11,0,0,0-5.84,3c-3.1,2.12-3.16,2.71-1.67,6.26.34.81.68,1.62,1,2.42,5.29,12,10.54,23.95,15.9,35.88,1.1,2.45,2.57,4.73,3.88,7.09l-.1-.14c.49,1.32,1,2.66,1.49,4a3.26,3.26,0,0,0,4,2,29.74,29.74,0,0,0,9-3.32c-4.38-11.52-9.92-22.4-13.1-34.21a5.3,5.3,0,0,1,2,1.13c5.13,4.68,10.17,9.45,15.35,14.07,3.94,3.51,8,6.9,12.1,10.21a7.2,7.2,0,0,0,3.53,1.51,12.62,12.62,0,0,0,8.53-2,22.27,22.27,0,0,0,8.1-9c1.4-2.9,2-6-.09-9l.09.15c-.07-2.1-1.22-3.42-3.1-4.5Zm-58.87,22.43c-4.8,2.67-5.41,2.63-8.68-.64l-.4-1.23c-2.13-8.08-4.22-16.17-6.4-24.24-.57-2.11-1.4-4.16-2.14-6.22a2.82,2.82,0,0,0-3.36-2,11.91,11.91,0,0,0-7.57,4.33c-1.62,2-.74,4.18-.25,6.31.14.65.31,1.29.48,1.93a270.19,270.19,0,0,0,9.76,29.76,26,26,0,0,0,3,5.46,7.15,7.15,0,0,0,7.19,3.11,16.07,16.07,0,0,0,8.92-3.93,11.9,11.9,0,0,0,3-11.85,4.72,4.72,0,0,0-1-1.67c-1-1.09-1.65-.84-2.68,1Z" transform="translate(-12.34 -28)"/><path d="M155.34,307.26c-4.94.52-9.07-.81-12.22-4.53-6-7.11-4.79-15.58,1.33-21.7,2.06-2,4.71-3.52,7.32-5.42-1.09-2.49-2.2-5.1-3.36-7.7-5.33-12-10.6-24-16-35.91-2.69-5.9-2.28-10.12,4.18-16,2.34-2.14,5.32-3.14,8.32-3.88,2.81-.71,6.43,1.59,7.86,4.79,2.93,6.54,5.95,13,8.72,19.64,4.08,9.76,8,19.59,12,29.39l1.43,3.54c4.35-1.21,8.77-1.5,12.78-3.49a7.22,7.22,0,0,0,4-4.54c.85-2.7,1.06-2.71,3.8-2,.93.26,1.87.48,2.91.74-.09-.44-.06-.71-.18-.81-6.33-5.26-9.71-12.47-12.91-19.74-2.3-5.24-4.38-10.59-6.33-16-1.3-3.58-.75-7,2.31-9.62,3.43-2.91,7.21-4.7,11.85-2.81a9,9,0,0,1,5,5.4c1.65,4.2,3.07,8.49,4.69,12.71s3.33,8.38,5,12.56a9.62,9.62,0,0,0,1,1.51c1.64-1,2-2.68,2.31-4.2.38-1.8,1.44-2,2.92-1.7,3.54.69,6.28,4,7,8.34,1,6.57-1.5,11.72-6.68,15.51a12.14,12.14,0,0,1-5.54,1.71c-1.71.21-3.49-.21-5.84-.41.82.94,1.31,1.54,1.84,2.11,4.43,4.75,4.28,10.86-.45,15.29a23.36,23.36,0,0,1-11,5.79c-5.25,1.16-10.6,1.94-15.94,2.69a30.77,30.77,0,0,0-16.94,7.56,12.65,12.65,0,0,0-4.49,8.22A23.77,23.77,0,0,1,155.34,307.26Zm47.27-65.77.1.14a10.64,10.64,0,0,0-.3-1.61c-2.32-6.43-4.63-12.86-7-19.26-.57-1.53-1.36-3-2-4.46l.08.13c-.84-3-.88-3-3.75-3.38h-1.53c-6.51,1.49-8.7,6.23-6.83,10.7,2.54,6.06,4.83,12.24,7.52,18.23a89.47,89.47,0,0,0,5.6,10c.56.92,1.74,1.46,2.64,2.18l1.57,1.58a8.07,8.07,0,0,0,11.16,3.4c6-3.38,8.27-13.31,3.39-18.23l-1.3,3.38-.91,1.86c-2.77,1.4-4.63.21-6.2-2.07A31.71,31.71,0,0,0,202.61,241.49Zm-66.15-7.82-.09-.14c.34,1,.59,2.09,1,3.07q8,18,16,35.94c.61,1.38,1,2.85,1.52,4.26a88.2,88.2,0,0,0-7.94,5.08c-4.58,3.64-6.05,8.5-4.62,14.18,1.06,4.21,4.72,7.76,8.5,8.22a9.34,9.34,0,0,0,.68-1.78c1-6.49,5.17-10.54,10.63-13.45,5.92-3.15,12.43-4.3,19-5.13,2.13-.27,4.23-.87,6.35-1.32l2.54-.27,5.48-2.39,1.15-.26c1-.56,1.94-1.05,2.83-1.69,3.11-2.25,4.1-5.14,3.05-8.69-1.18-4-4.54-6.88-8.27-7-2.07,4.82-6.36,6.63-11.14,7.71-2.48.56-5,1.06-7.42,1.72s-4.3.55-5.55-1.86l-.26-1.12c-.19-.52-.35-1.05-.57-1.55q-8.49-19.38-17-38.74c-2-4.52-4.17-9-6.29-13.47a14.55,14.55,0,0,0-8.33,3.91C132.68,223.29,132.29,228.15,136.46,233.67Z" transform="translate(-12.34 -28)"/><path d="M258.09,262.91c-1.13-2.58-2.15-4.65-3-6.8-.92-2.4-.7-2.93,1.44-4.4,1.85-1.26,3.76-2.37,6.14-1.4a5,5,0,0,1,3,2.85c3.06,7.43,6.23,14.83,9.34,22.25.86,2.07.64,2.7-1.21,3.78a13.74,13.74,0,0,1-2.38,1.15q-4.75,1.73-7.06-2.77c-.85-1.66-1.63-3.35-2.55-5.23l-2.82,1a4.16,4.16,0,0,0,0,1.14c.76,2,1.61,3.87,2.32,5.84.89,2.47.58,3.29-1.68,4.62a18.53,18.53,0,0,1-3,1.45,4.76,4.76,0,0,1-6.09-2.42c-3.17-7.39-6.23-14.83-9.24-22.29-.83-2.06-.51-2.46,1.44-3.76,2.31-1.55,4.69-2.66,7.3-.78a9.43,9.43,0,0,1,2.34,2.57c.88,1.36,1.54,2.86,2.41,4.53Zm.23-9.4c-1.47-.11-1.64.85-1.32,1.86a9.91,9.91,0,0,0,1.31,2.1,10.7,10.7,0,0,0,.83,2.71c1.26,2,.9,3.72-.77,5.27-.93.2-1.87.34-2.78.61-2.91.85-2.9.87-5-1,1.45,3.09,1.65,3.21,4.42,2.07,1.15-.48,2.21-1.19,3.32-1.79l3.7-1.51c-1.4-2.35-2.59-4.35-3.77-6.35,0-1.36,0-2.71,0-4.07l3.83-.72C260.17,251.73,259.17,252.31,258.32,253.51ZM249,274.72a19.39,19.39,0,0,0-.61-2.5c-1.13-3-2.37-5.89-3.49-8.86-.85-2.24-.73-2.42,1.7-3.95l2.73,3.55.46-.32c-.77-1.51-1.55-3-2.47-4.81l-4.49,2.56c1.88,4.67,3.62,9,5.4,13.39.14.35.55.59.84.88.53,3.41,2.21,6.31,3.93,9.73l4.68-2.6c-1.31-3.34-2.47-6.27-3.71-9.42,1.74-1,3.23-1.84,4.77-2.62,3.13-1.57,3.43-1.47,5,1.65,1.12,2.23,2.18,4.5,3.47,7.18l2.32-2c1.89-.79,1.89-.79.95-2.52-.29.86-.59,1.72-.89,2.59-1.43.36-2.46.18-3.05-1.48a54.33,54.33,0,0,0-2.49-5.38c-1-2.12-2-2.57-4.13-1.68-1.72.72-3.39,1.56-5.05,2.41-1.95,1-2.14,1.56-1.35,3.67.7,1.85,1.5,3.66,2.13,5.53.36,1.09.28,2.25-1,2.79s-1.91-.36-2.42-1.46C251.22,278.94,250.09,276.84,249,274.72Zm18.46-4.1c.19,3.78.19,3.78,1.75,4.69ZM252,277l.77-.43-1.74-3-.64.37ZM251,270.3l.7-.4-1.43-2.23-.47.28Z" transform="translate(-12.34 -28)"/><path d="M282,252.32c1-.42,1.88-.87,2.85-1.24a4.92,4.92,0,0,1,6.65,3.44,3,3,0,0,1-1.25,3.44c-1.27.88-2.51,1.8-3.77,2.69-1,.74-1.19,1.52.06,2.55a50.29,50.29,0,0,0,4.87-2.34,4.61,4.61,0,0,1,5.52.29c1.28,1.2,1.7,3.46,2.16,5.34.13.55-.73,1.68-1.41,2-4.86,2.54-9.74,5.07-14.74,7.35-2,.91-4.5-.36-5.44-2.47-3.26-7.35-6.51-14.7-9.61-22.11-1.58-3.8-1.27-4.37,2.35-6.14,3.85-1.89,7.78-3.64,11.62-5.55,4-2,7.63,1.3,7.91,5.81,0,.52-.77,1.27-1.36,1.63-1.5.91-3.13,1.61-4.65,2.5a21.76,21.76,0,0,0-2.4,1.8Zm4.13,3.83-6.43,2.78c.52,1.55.84,2.7,1.29,3.79,2.29,5.46,2.4,5.46,7.94,3.07,1.42-.62,2.72-1.77,4.79-1.52a7.56,7.56,0,0,1-.6,1.61,6.54,6.54,0,0,1-1.07,1l.31.33,2.8-1.93-1.84-3.21c-1.83.92-3.32,1.63-4.77,2.43-3.94,2.17-4.66,2.92-6.77-2.67-.6-1.58-.41-2.69,1.26-3.52a21.11,21.11,0,0,0,3-2.26c2.14-.85,2.14-.85.25-3.31l-6.14,2.46c-3.54-4.11-3.49-4.9.1-8.52l-4.12,2.46a5.3,5.3,0,0,0,.12,1.31c.41,1,.85,2,1.33,3,1.53,3.12,2.09,3.31,5.35,1.8a11.53,11.53,0,0,1,1.75-.89,6.92,6.92,0,0,1,1.84,0Zm-14.38-9.08c-2.75,1.09-2.91,1.2-2.1,3.1q4.65,10.92,9.46,21.76c.19.42.82.66,1.24,1-3-7.61-6.18-14.93-9.57-22.17C270,249,270.87,248.17,271.78,247.07Zm2.26-1.44.2.51,2.6-1.12c1.61-.7,3.2-1.44,4.83-2.1.83-.33,1.87-.61,2.23.5.15.46-.51,1.19-.84,1.77a3,3,0,0,1-.54.59l.27.36,2.8-1.94-1.77-3.33Zm-1.54,5.79,2.2-3a3.15,3.15,0,0,0-2.44.79C272,249.49,272.36,250.32,272.5,251.42ZM277,258l.53-.32-.95-2.74-.44.14C276.46,256.05,276.75,257,277,258Z" transform="translate(-12.34 -28)"/><path d="M235.67,272.5c2,5.21,3.93,10.24,5.85,15.26.24.61.5,1.22.72,1.85.51,1.45.25,2.61-1.29,3.24-2.09.85-3.91,2.47-6.51,1.66a4.27,4.27,0,0,1-3-2.68c-1.55-3.89-3.2-7.74-4.83-11.59-.51-1.2-1.1-2.37-1.78-3.82-1.47.59-2.75,1.14-4.06,1.62-2.85,1-4.9.15-6.09-2.64-1.8-4.23-1.68-4.95,2.49-6.86,5.5-2.52,11.12-4.78,16.7-7.12a8.13,8.13,0,0,1,2.22-.61c2.54-.29,3.83.5,4.82,2.88a18.06,18.06,0,0,1,.71,1.85c.81,2.71.62,3.13-1.79,4.51C238.48,270.81,237.18,271.61,235.67,272.5Zm-4.39-.6c.12,3.54,2.05,6.38,3.33,9.48l.68-.28L231.22,272c0-1.52,1.29-1.9,2.33-2.48,1.6-.89,3.21-1.76,4.92-2.7-.52-1.58-.91-2.79-1.37-4.19l-2.18.79c.71.54,1.92,1,2,1.69s-.8,1.59-1.45,2.21a10,10,0,0,1-2,1.1c-1.12.62-2.23,1.26-3.62,2.05Zm-15,2.57,1.11-3.4c-1.5.86-1.5.86-1.11,3.39l1.62,1.5,5.28-2.3a2.17,2.17,0,0,1,3.07,1,23.68,23.68,0,0,1,1.17,2.37c1.51,3.65,3,7.33,4.52,11,.58,1.37,1.32,2.67,2.17,4.36l4.55-2.56-1.66-4c.57,4.27.57,4.27-2.81,5-.32-.62-.73-1.26-1-1.94-1.82-4.48-3.58-9-5.44-13.45-1.58-3.77-2.23-4-6-2.35a8.72,8.72,0,0,0-1.18.6A5.36,5.36,0,0,1,216.25,274.47Zm7.79-3.9c-3.72.39-4.29.68-6,3Z" transform="translate(-12.34 -28)"/><path d="M180.35,210.43c-5.2,0-9.46-2.9-10.63-7.23a10.43,10.43,0,0,1,4.37-11.81c3.64-2.29,9.85-1.55,13.57,1.62,3,2.57,4.07,7.47,2.47,11.51C188.69,208.17,184.94,210.44,180.35,210.43Zm5.8-11.4a6.72,6.72,0,0,0-7.7-6.68,8.59,8.59,0,0,0-6.37,6c-.81,3.25.14,6.49,2.78,8.19a6.7,6.7,0,0,0,4,1C182.79,207.24,186.2,203,186.15,199Z" transform="translate(-12.34 -28)"/><path d="M122,301.82c-1.84.61-2.84,1-3.87,1.26Q90.55,309.82,63,316.52c-2.14.52-4.22,1.31-6.38,1.64-1.13.18-2.91,1.7-3.45-.1s1.69-1.57,2.77-1.86c4.56-1.22,9.18-2.26,13.77-3.39l47.77-11.72a12.9,12.9,0,0,1,2.58-.49C120.43,300.59,120.84,301.09,122,301.82Z" transform="translate(-12.34 -28)"/><path d="M139.52,196.15c-1.13,1.76-2.06.6-2.88.07-4.16-2.7-8.26-5.49-12.43-8.17q-20.55-13.22-41.15-26.36c-1-.65-2.35-1.09-1.24-2.68C84.88,159.83,136.59,193.09,139.52,196.15Z" transform="translate(-12.34 -28)"/><path d="M308.84,462.77c-1.87.44-2-.57-2.32-1.53-1.64-5.14-3.37-10.25-5-15.38q-7.18-22.65-14.32-45.31c-.36-1.15-1.4-2.37-.09-3.61,1.36.14,1.46,1.19,1.75,2.11q4.53,14.15,9.07,28.29,5,15.72,10,31.46C308.31,460.09,308.53,461.44,308.84,462.77Z" transform="translate(-12.34 -28)"/><path d="M364.09,338c1-1.8,1.88-1.19,2.73-.67,2.73,1.65,5.47,3.3,8.18,5q20.78,12.89,41.53,25.81c1.49.94,3.52,1.34,4.23,3.47-1.23,1-2.11.35-3-.23q-8.26-5.16-16.55-10.29L368.6,340.91C367.13,340,365.69,339,364.09,338Z" transform="translate(-12.34 -28)"/><path d="M258.86,134.88c-.59-2.2-1.41-60.39-.92-62.19a9.53,9.53,0,0,1,.48-1.17c1.83,1.13,1.55,2.41,1.56,3.55q.15,17,.25,34,.07,11.56.06,23.14C260.29,133.21,260.77,134.5,258.86,134.88Z" transform="translate(-12.34 -28)"/><path d="M377.62,310.24a22.72,22.72,0,0,1,2.82.62q10.08,3.64,20.13,7.37,16.71,6.16,33.4,12.36c1.35.5,3,.65,3.68,2.19-.9,1.44-1.87.77-2.73.45q-14.85-5.49-29.69-11c-8.45-3.13-16.91-6.23-25.34-9.41C378.91,312.45,377.34,312.44,377.62,310.24Z" transform="translate(-12.34 -28)"/><path d="M117.8,272.62a19.25,19.25,0,0,1-3.25.57c-5.17.05-10.34,0-15.51,0q-17,0-34-.12c-1,0-2,.26-2.49-1.06.25-1.35,1.34-1.2,2.3-1.21,3.3,0,6.6,0,9.9.05q20.14.11,40.28.22a22.5,22.5,0,0,1,2.71.32Z" transform="translate(-12.34 -28)"/><path d="M264.78,464.77c-.67-1.74-7.13-60.16-6.83-62,.06-.35.47-.65,1.1-1.46a10.56,10.56,0,0,1,1.08,2.49q1.78,17.1,3.47,34.2,1.22,12,2.38,24C266.09,463.14,266.62,464.48,264.78,464.77Z" transform="translate(-12.34 -28)"/><path d="M196.22,76.72c1.83,3.21,2.72,6.7,3.72,10.13q7.59,25.83,15.06,51.69c.05.17-.36.48-.62.82-1.48-.45-1.49-1.78-1.81-2.86q-3.93-13.15-7.84-26.3c-2.91-9.72-5.84-19.42-8.72-29.15C195.6,79.68,194.77,78.24,196.22,76.72Z" transform="translate(-12.34 -28)"/><path d="M359.65,184.48c-1.46-1.11-.76-1.83.05-2.53,2.5-2.15,5-4.31,7.53-6.45q17-14.43,34-28.85a5,5,0,0,1,1.3-1,1,1,0,0,1,1.27,1.39,6.48,6.48,0,0,1-1.36,1.41Q381.56,166.22,360.63,184A6,6,0,0,1,359.65,184.48Z" transform="translate(-12.34 -28)"/><path d="M338.05,368.47c2.39-.6,3,.67,3.69,1.5q10.49,11.91,20.93,23.85c4.94,5.63,9.91,11.25,14.84,16.89.67.77,1.23,1.64,1.85,2.47-1.3,1.14-1.88.52-2.5-.18-2.63-3-5.31-5.9-7.92-8.88q-14.51-16.51-29-33.07C339.36,370.36,338.87,369.58,338.05,368.47Z" transform="translate(-12.34 -28)"/><path d="M59,294.12c-.21-1.5.92-1.49,1.88-1.62,3-.39,5.9-.78,8.86-1.13q22.3-2.64,44.63-5.24a15.13,15.13,0,0,1,3.29-.12c.36,0,.65.8,1.06,1.34C114.48,288.29,61,295,59,294.12Z" transform="translate(-12.34 -28)"/><path d="M157.59,97.65c1.67-1,2.18-.08,2.67.79,1.62,2.88,3.21,5.79,4.83,8.67q11,19.62,22,39.24c.55,1,1.6,1.91.95,3.35-1.82.55-2-1.1-2.49-2-3.6-6.32-7.12-12.69-10.68-19q-7.86-14-15.73-28C158.61,99.78,158.17,98.79,157.59,97.65Z" transform="translate(-12.34 -28)"/><path d="M218.39,78.55c1.28,2.27,11.12,48.5,12,55.9a5.1,5.1,0,0,1-.4,1.57c-1.65-.11-1.78-1.16-2-2.27-1.46-7.67-2.92-15.34-4.44-23-1.9-9.61-3.87-19.2-5.75-28.8C217.55,80.89,216.74,79.61,218.39,78.55Z" transform="translate(-12.34 -28)"/><path d="M316.1,385.06c9.4,16.89,18.78,33.67,27.83,50.64.15.28-.13.78-.19,1.13-1.57.36-1.8-.84-2.24-1.63q-7.17-12.84-14.29-25.72-5.83-10.56-11.56-21.18C315.17,387.4,314,386.3,316.1,385.06Z" transform="translate(-12.34 -28)"/><path d="M87.46,189,38.44,165c.45-1.67,1.21-1.72,2.28-1.19,2.37,1.15,4.77,2.25,7.14,3.41l36.73,18a17.55,17.55,0,0,1,2.91,1.54c.44.33.53,1.13.78,1.72Z" transform="translate(-12.34 -28)"/><path d="M158.26,172.14c-1.18,1.64-1.9.85-2.6.09-2.41-2.57-4.79-5.17-7.21-7.73q-14.08-14.88-28.17-29.75c-.69-.73-2.25-1.42-1.24-2.6,1.19-1.39,1.91.38,2.52,1q17.79,18.65,35.48,37.38A18.07,18.07,0,0,1,158.26,172.14Z" transform="translate(-12.34 -28)"/><path d="M51.12,405.44C66,394.57,80.25,384.13,94.53,373.71a9.1,9.1,0,0,1,2.21-.72c-.25,1-.23,1.65-.56,2a13.25,13.25,0,0,1-2.08,1.61L55.15,405.05a5.58,5.58,0,0,1-1.65,1.06C53,406.22,52.45,405.84,51.12,405.44Z" transform="translate(-12.34 -28)"/><path d="M125.39,225.82a24.32,24.32,0,0,1-3.22-.75q-15.78-5.85-31.54-11.78c-4.43-1.65-8.88-3.26-13.32-4.89-.31-.12-.63-.21-.93-.34-.8-.32-2-.54-1.4-1.69.17-.34,1.56-.39,2.23-.14q16.77,6.09,33.47,12.3c4.34,1.61,8.64,3.29,12.95,5a18.34,18.34,0,0,1,2.11,1.19Z" transform="translate(-12.34 -28)"/><path d="M327.84,377.34c1.46-1.18,2-.2,2.55.61l8.21,11.58q9.54,13.46,19.07,26.93c.74,1,1.39,2.15,2.08,3.23-1.6,1.43-2.17.19-2.77-.63q-3.51-4.8-7-9.64-10.57-14.94-21.13-29.91A14,14,0,0,1,327.84,377.34Z" transform="translate(-12.34 -28)"/><path d="M357.8,347.16c1.11.72,2,1.21,2.74,1.79q11.59,8.71,23.19,17.44c4.83,3.63,9.7,7.23,14.52,10.88.8.61,2.41,1.2,1.52,2.43-1,1.4-1.93-.2-2.68-.76q-19.3-14.37-38.53-28.82a4,4,0,0,1-1.38-1.32C357,348.45,357.52,347.83,357.8,347.16Z" transform="translate(-12.34 -28)"/><path d="M120.64,241.11c-2.71-.65-5-1.16-7.31-1.77q-19.11-5.07-38.22-10.18a27,27,0,0,1-3.47-1c-.43-.17-.62-.9-1.32-2,6.78.84,12.59,2.81,18.46,4.35,10.59,2.78,21.09,5.91,31.62,8.93C120.53,239.48,120.5,240,120.64,241.11Z" transform="translate(-12.34 -28)"/><path d="M482.39,199c-1,.36-2,.77-3,1.07L433.71,213.3c-.32.09-.67.39-.92.31a9.09,9.09,0,0,1-1.56-.78c.3-.4.52-1,.92-1.16a11.47,11.47,0,0,1,2.2-.68q22.66-6.62,45.33-13.21C480.69,197.48,482.07,196.53,482.39,199Z" transform="translate(-12.34 -28)"/><path d="M179.94,95.12c-.87-1.91-1.49-3.15-2-4.44q-8.71-21.27-17.37-42.55c-.39-1-1.62-2.1.08-3.23,1.47.71,1.65,2.25,2.15,3.49Q171.93,71,181,93.7C181,93.86,180.6,94.21,179.94,95.12Z" transform="translate(-12.34 -28)"/><path d="M384,137.33c-1.2,2.47-23.14,25.37-33,34.47a4.33,4.33,0,0,1-1.36.83c-.24.1-.6-.11-1-.21-.27-1.64,1-2.38,1.88-3.24,5.85-6,11.77-11.9,17.66-17.85l13.23-13.4C382.09,137.18,382.78,136.1,384,137.33Z" transform="translate(-12.34 -28)"/><path d="M192.78,396.65c1.2,1,.53,1.93.18,2.79q-6.51,15.92-13.05,31.81L175,443.18c-.37.9-.54,2-2.15,1.71,0-.46-.27-1.05-.1-1.46q9.47-23.08,19-46.13C191.94,397,192.47,396.85,192.78,396.65Z" transform="translate(-12.34 -28)"/><path d="M288.71,34.06a37,37,0,0,1,0,4q-2.7,21-5.47,42a10.57,10.57,0,0,1-.54,2.58c-.14.35-.8.49-1.54.9a11.82,11.82,0,0,1-.28-2.5Q284,58,287.25,34.89C287.28,34.7,287.76,34.58,288.71,34.06Z" transform="translate(-12.34 -28)"/><path d="M224.53,450.87c-1.55-.72-.85-2-.74-2.93.75-6.55,1.57-13.09,2.41-19.64q1.43-11.12,2.92-22.23c.23-1.67.63-3.33,1-5,1.88.33,1.66,1.34,1.53,2.31q-.93,7-1.85,14.06c-1.3,10.15-2.58,20.29-3.9,30.43C225.72,449,226,450.32,224.53,450.87Z" transform="translate(-12.34 -28)"/><path d="M367,122.77a28.78,28.78,0,0,1-1.49,2.55q-13,17.85-26.08,35.67c-.65.89-1.16,2.27-3,1.21a14.36,14.36,0,0,1,1.13-2.29q13.13-18,26.32-35.87C364.46,123.2,365,121.81,367,122.77Z" transform="translate(-12.34 -28)"/><path d="M439.07,299.65c3.24.7,6.11,1.3,9,1.93q18.51,4.1,37,8.19c1,.22,2,.27,2.06,1.7-1.06,1.17-2.29.4-3.35.18-8.28-1.79-16.54-3.65-24.81-5.47-5.79-1.28-11.6-2.49-17.39-3.8C440.52,302.15,439,302.24,439.07,299.65Z" transform="translate(-12.34 -28)"/><path d="M342,489.83a26.9,26.9,0,0,1-1.61-2.8q-8.56-20.79-17.05-41.6c-.37-.89-1.59-2.22-.17-2.88s1.58,1.1,1.95,2q8.53,20.61,17,41.27C342.51,486.84,343.44,487.88,342,489.83Z" transform="translate(-12.34 -28)"/><path d="M421.92,98c-.14.56-.11,1.1-.36,1.36Q405.26,116.23,389,133c-1.64-.83-1.3-1.68-.54-2.49,1.66-1.77,3.36-3.49,5.05-5.23q12.69-13,25.38-26C419.56,98.5,420.14,97.34,421.92,98Z" transform="translate(-12.34 -28)"/><path d="M281.81,448.32c-1.18-1.94-10-44.24-9.82-46.89,0-.43.47-.82,1.12-1.89a34.47,34.47,0,0,1,1.13,3.59q4.26,22.19,8.44,44.39C282.71,447.68,282.24,447.94,281.81,448.32Z" transform="translate(-12.34 -28)"/><path d="M145.54,354.74c1.43,1.85.35,2.4-.33,3-4,3.67-8,7.31-11.91,11q-10.16,9.47-20.29,19c-.82.77-1.62,2-3.29.24C121.51,376.69,133.35,365.67,145.54,354.74Z" transform="translate(-12.34 -28)"/><path d="M290.71,140.53c-2.36-.87-1.66-2.05-1.43-3,1.32-5.47,2.68-10.93,4-16.39q3.09-12.51,6.16-25c.28-1.12.22-2.52,2.23-2.22a5.1,5.1,0,0,1,.13,1.57C298.16,110.38,294.46,125.32,290.71,140.53Z" transform="translate(-12.34 -28)"/><path d="M274.38,136.73a5.21,5.21,0,0,1-.31-1.53q2.85-22.47,5.79-44.92c0-.36.47-.67.74-1,1.44.33,1.4,1.2,1.24,2.28q-1.24,8.83-2.4,17.69c-1.1,8.41-2.16,16.83-3.25,25.24C276.06,135.49,276.26,136.8,274.38,136.73Z" transform="translate(-12.34 -28)"/><path d="M408.91,172.14c-1.07.83-1.69,1.4-2.4,1.84l-35.86,22.33c-.91.56-1.8,1.45-3.07-.3a28.11,28.11,0,0,1,2.43-1.87q17.39-10.8,34.79-21.56a7.58,7.58,0,0,1,2-1.1C407.27,171.36,407.87,171.78,408.91,172.14Z" transform="translate(-12.34 -28)"/><path d="M141.71,124.1c.69.7,1.39,1.3,2,2,10.24,12.57,25.33,33.38,25.91,35.77-1.42.71-2-.46-2.56-1.26-2.34-3.07-4.62-6.18-6.94-9.27q-9-11.88-17.91-23.76C141.51,126.7,140.27,125.84,141.71,124.1Z" transform="translate(-12.34 -28)"/><path d="M413.6,344.67c-.78,1.61-1.65,1.17-2.44.79-2.88-1.39-5.73-2.82-8.6-4.22l-29.39-14.33c-.49-.24-.95-.54-1.95-1.11a7.8,7.8,0,0,1,1.82-1.07c.34-.08.8.3,1.2.49q18.7,9.09,37.41,18.19A18.17,18.17,0,0,1,413.6,344.67Z" transform="translate(-12.34 -28)"/><path d="M303,391.86a10.74,10.74,0,0,1,1.35,1.94q8,20,16,40c0,.09-.45.39-.69.59C318,432.93,308.49,411,302.57,395a19.7,19.7,0,0,1-.62-2.68Z" transform="translate(-12.34 -28)"/><path d="M113.46,154.8c1.21.81,2,1.27,2.75,1.86q15.12,12.51,30.19,25.06c.79.66,2.23,1.26.94,3.22-1.37-1-2.67-1.94-3.88-2.95q-15.12-12.7-30.19-25.48C113.14,156.4,113.32,155.92,113.46,154.8Z" transform="translate(-12.34 -28)"/><path d="M244.2,401.8c2.05.68,1.55,2.09,1.55,3.16,0,3.2-.11,6.39-.17,9.58q-.3,15-.61,30c0,1.1.36,2.46-1.23,3-1.06-2.26-1.27-20.8-.33-36.41C243.6,408.1,243.11,404.92,244.2,401.8Z" transform="translate(-12.34 -28)"/><path d="M312,139.34a8,8,0,0,1,.16-1.89c5.62-15.63,15.54-39.16,17.62-41.31.14,1,.46,1.65.29,2.17-.64,1.88-1.44,3.7-2.17,5.54q-6.61,16.58-13.24,33.14C314.22,138.05,314.21,139.78,312,139.34Z" transform="translate(-12.34 -28)"/><path d="M178.78,392.11c-3.25,6.15-6.36,12.09-9.52,18q-5.37,10-10.79,20.06c-.05.1-.07.21-.13.31-.47.82-.81,2.18-2.05,1.52s-.22-1.7.21-2.5q9.7-18.19,19.45-36.38C176.47,392.13,176.84,390.72,178.78,392.11Z" transform="translate(-12.34 -28)"/><path d="M347.86,359.42c.86-1.47,1.72-.75,2.56,0,3.07,2.84,6.11,5.71,9.2,8.54q10.23,9.36,20.49,18.71c.81.74,2.12,1.39.92,2.82C378.51,388.37,350.67,363.08,347.86,359.42Z" transform="translate(-12.34 -28)"/><path d="M197.46,440.28c-1.17-1-.66-1.94-.39-2.86q5.51-18.71,11-37.41a1.58,1.58,0,0,1,.09-.31c.44-.78.37-2.28,1.81-1.71.36.14.52,1.53.32,2.22-1.26,4.45-2.67,8.86-4,13.3-2.38,8-4.72,16.07-7.09,24.11C199,438.62,199,439.87,197.46,440.28Z" transform="translate(-12.34 -28)"/><path d="M446.65,257.49c.49-1.7,1.88-1.26,3-1.3,5.29-.16,10.58-.27,15.86-.38q11.24-.26,22.47-.47c1.07,0,2.15.09,4.13.18-1,1-1.41,1.54-1.94,1.78a4.36,4.36,0,0,1-1.63.11q-19.32.49-38.65,1C448.76,258.41,447.43,258.9,446.65,257.49Z" transform="translate(-12.34 -28)"/><path d="M102.2,368.91c1.36-2.06,29.91-23,35-25.68A5.38,5.38,0,0,1,139,343c.31,1.68-.87,2.1-1.73,2.7-7.48,5.26-15,10.49-22.47,15.77-3.33,2.36-6.56,4.84-9.87,7.23C104.12,369.31,103.21,370.29,102.2,368.91Z" transform="translate(-12.34 -28)"/><path d="M418.79,424.7c-2.78-2.48-5.33-4.71-7.82-7Q399.66,407.35,388.39,397c-.81-.75-2.16-1.28-1.4-2.93,1.76-.18,2.54,1.2,3.51,2.11q14.58,13.56,29.05,27.22A7.77,7.77,0,0,1,418.79,424.7Z" transform="translate(-12.34 -28)"/><path d="M420,349.55c.8-1.84,1.73-1.16,2.61-.74,4.77,2.25,9.56,4.47,14.31,6.76q9.65,4.65,19.26,9.4c1,.51,3.09.84,2.16,2.51-.79,1.41-2.13-.08-3.11-.56q-16.62-8-33.2-16.15C421.41,350.45,420.8,350,420,349.55Z" transform="translate(-12.34 -28)"/><path d="M424.1,214.29c-.35,2.46-1.77,2.36-2.85,2.67-8.46,2.42-16.93,4.79-25.39,7.2-3.7,1.06-7.37,2.2-11.07,3.24a19.24,19.24,0,0,1-2.71.37c-.19-2.13,1.19-2.08,2.15-2.36q8.07-2.4,16.17-4.72,10.14-2.91,20.32-5.74C421.71,214.67,422.73,214.55,424.1,214.29Z" transform="translate(-12.34 -28)"/><path d="M240.71,90.38c1.33,4.28,4.65,41.69,4,44.1-1.6.27-1.44-.93-1.53-1.87q-.73-7.41-1.43-14.83l-2.31-24.7C239.3,92.05,238.85,90.86,240.71,90.38Z" transform="translate(-12.34 -28)"/><path d="M93.54,350.1c.73-.52,1.37-1.09,2.1-1.51L129,329.81c.92-.52,1.83-1.37,2.95.3a20.2,20.2,0,0,1-2,1.53q-16.5,9.35-33,18.64C95,351.34,94.94,351.29,93.54,350.1Z" transform="translate(-12.34 -28)"/><path d="M156.85,368.48c-1.55,2.94-25.44,30.68-28,32.32,0-.92-.24-1.69,0-2.12a38.7,38.7,0,0,1,2.74-3.28q11.06-12.91,22.13-25.8C154.49,368.79,155.07,367.32,156.85,368.48Z" transform="translate(-12.34 -28)"/><path d="M85.3,331.07c1.44-.74,2.24-1.22,3.1-1.57l34.88-13.9a3.45,3.45,0,0,1,1.23-.44,5.1,5.1,0,0,1,1.43.43c-.26.5-.41,1.29-.81,1.47-2.93,1.25-5.91,2.36-8.87,3.54L89.62,331.17a8.93,8.93,0,0,1-2.15.81C87,332,86.47,331.58,85.3,331.07Z" transform="translate(-12.34 -28)"/><path d="M184.53,103.3c1.91,2.27,15.89,36.07,16.54,39.84-1.29,1-1.68,0-2.07-.94q-2-4.87-4-9.76-5.16-12.69-10.31-25.37a11.88,11.88,0,0,1-.86-2.47C183.76,104.24,184.25,103.78,184.53,103.3Z" transform="translate(-12.34 -28)"/><path d="M94.62,192.44c1.26-1.88,2.16-1,3-.6,4.54,2.21,9.08,4.43,13.6,6.7,6.18,3.12,12.34,6.28,18.51,9.42a5.56,5.56,0,0,1,1.46.74,4.09,4.09,0,0,1,.61,1.37c-.55.17-1.22.62-1.62.45-2.22-1-4.39-2-6.54-3.12Q110.55,200.74,97.5,194C96.57,193.55,95.67,193,94.62,192.44Z" transform="translate(-12.34 -28)"/><path d="M84.83,95.58c10,9.72,19.32,20,29.05,29.78a5.3,5.3,0,0,1,.73,1.64c-1.38,1.15-1.93,0-2.56-.65q-7.41-7.55-14.78-15.12c-4.07-4.19-8.1-8.4-12.16-12.59C84.35,97.86,83.46,97.13,84.83,95.58Z" transform="translate(-12.34 -28)"/><path d="M243.35,454.77c1.83.24,1.55,1.48,1.53,2.52-.07,4.51-.18,9-.25,13.54-.11,7.27-.18,14.54-.31,21.81,0,1.11.47,2.47-1.09,3.15-1.39-.64-.95-1.87-.94-2.87q.06-11.57.22-23.13c.06-4.4.21-8.8.36-13.2A8.34,8.34,0,0,1,243.35,454.77Z" transform="translate(-12.34 -28)"/><path d="M381.78,418.55c1.15-.23,1.71-.53,2.05-.37a5.29,5.29,0,0,1,1.44,1.32q11.48,13,22.92,26.11c.73.82,2,1.6.69,3.19a9.75,9.75,0,0,1-1.82-1.31C398.74,438,390.44,428.48,381.78,418.55Z" transform="translate(-12.34 -28)"/><path d="M167.53,378.52c1.3,1.58.28,2.55-.32,3.48-2.38,3.7-4.83,7.35-7.24,11-3.8,5.8-7.57,11.61-11.38,17.4a34.5,34.5,0,0,1-2.16,2.7c-1.8-.69-1-1.7-.57-2.47,1.26-2.06,2.61-4.07,3.95-6.09q8.12-12.24,16.24-24.46A13.21,13.21,0,0,1,167.53,378.52Z" transform="translate(-12.34 -28)"/><path d="M344.54,119.92c-.25.51-.47,1-.73,1.49q-6.78,12.1-13.55,24.21c-1.24,2.2-2.42,4.44-3.73,6.61-.49.83-.73,2.63-2.17,1.73s0-2,.45-2.87c1.38-2.62,2.83-5.22,4.28-7.81q6.29-11.25,12.6-22.48a6.48,6.48,0,0,1,1.12-1.6,1.43,1.43,0,0,1,1.18-.1C344.22,119.16,344.34,119.6,344.54,119.92Z" transform="translate(-12.34 -28)"/><path d="M376.36,211.94c-.17-1.62,1.25-1.63,2.15-2q12.39-5.4,24.82-10.7l8.18-3.49c.7-.3,1.55-.89,1.9.18.13.39-.52,1.37-1,1.61-3.78,1.75-7.61,3.41-11.45,5q-10.76,4.6-21.55,9.13C378.45,212.09,377.46,213,376.36,211.94Z" transform="translate(-12.34 -28)"/><path d="M118.38,257.33a5.54,5.54,0,0,1-1.95.53c-10.35-1.32-20.69-2.7-31-4.07-1.09-.14-2.18-.25-3.27-.37-.92-.1-1.92-.29-1.66-1.45.08-.36,1.24-.72,1.86-.65,4.37.46,8.73,1,13.09,1.56q9.8,1.26,19.6,2.58a32.69,32.69,0,0,1,3.32.8Z" transform="translate(-12.34 -28)"/><path d="M291.29,492.78c-2.23-.59-2.17-1.85-2.37-2.86q-3-15.72-5.91-31.44a28.73,28.73,0,0,1-.21-3.16c1.89-.05,1.89,1,2.08,1.95q3,15.72,5.95,31.44C291.06,489.92,291.11,491.16,291.29,492.78Z" transform="translate(-12.34 -28)"/><path d="M386,241.45c12-2,23.8-4.07,35.6-6a3.86,3.86,0,0,1,1.43.38c0,1.61-1,1.64-2,1.81q-11.54,2-23.06,4c-3.26.56-6.5,1.18-9.75,1.78C387.23,243.55,386.28,243.61,386,241.45Z" transform="translate(-12.34 -28)"/><path d="M153.57,438.93c-5.55,10.47-11.13,21-16.75,31.53a9,9,0,0,1-1.48,1.63c-1.45-.92-.74-1.81-.3-2.64q4.69-8.88,9.42-17.76,3.25-6.12,6.55-12.2C151.49,438.6,151.93,437.58,153.57,438.93Z" transform="translate(-12.34 -28)"/><path d="M79.19,333.66c.8,1.65-.35,1.88-1.22,2.25-2.94,1.24-5.88,2.49-8.84,3.7q-11,4.5-22,8.95c-1,.4-2.14,1.38-3.45-.17A7.7,7.7,0,0,1,45.32,347q16-6.6,32.1-13.11A7.66,7.66,0,0,1,79.19,333.66Z" transform="translate(-12.34 -28)"/><path d="M366.51,78.73c1.09,1,.27,1.83-.19,2.64-2.09,3.75-4.21,7.48-6.33,11.21q-5,8.78-10,17.52c-.52.89-1.16,1.72-1.8,2.66-1.7-1.17-.93-2.14-.42-3.05,1.57-2.78,3.18-5.54,4.76-8.31q6.06-10.62,12.1-21.26C365.09,79.36,365.33,78.45,366.51,78.73Z" transform="translate(-12.34 -28)"/><path d="M236.06,45.64a10.39,10.39,0,0,1,.84,2.16q1.71,17.43,3.34,34.86c0,.25-.29.57-.51.79s-.39.12-.85.24c-1.37-2.92-1-6.13-1.4-9.21-.42-3.27-.73-6.56-1-9.85s-.48-6.37-.91-9.54C234.59,48.19,234.55,47.66,236.06,45.64Z" transform="translate(-12.34 -28)"/><path d="M63.46,225.4a5,5,0,0,1-1.83.36c-2.37-.5-4.7-1.13-7-1.73-7.45-1.9-14.9-3.79-22.33-5.76-1-.27-3-.06-2.62-1.7s2-.61,3-.34q14.35,3.63,28.71,7.38a13.45,13.45,0,0,1,2.15,1Z" transform="translate(-12.34 -28)"/><path d="M182.77,37.2c1.93-.83,2.25.25,2.58,1.32,1.28,4.21,2.57,8.41,3.84,12.62q2.53,8.37,5.06,16.74c.31,1,.86,2.1-1.05,2.88-2.13-5.61-3.53-11.32-5.29-16.91S184.49,42.8,182.77,37.2Z" transform="translate(-12.34 -28)"/><path d="M52,293.85c.36,1.67-.43,1.9-1.41,2q-8.54.94-17.07,1.91c-3.17.36-6.34.76-9.5,1.17-.82.1-1.76.16-1.77-.84,0-.47.88-1.28,1.45-1.36,3.81-.56,7.63-1,11.46-1.41q7.06-.78,14.14-1.47C50.26,293.77,51.19,293.85,52,293.85Z" transform="translate(-12.34 -28)"/><path d="M93.85,440.31c6.45-7.76,12.74-15.35,19.05-22.91a3.54,3.54,0,0,1,1.13-.59c1.19,1.3.26,2.08-.42,2.9L99.3,437c-.91,1.1-1.81,2.21-2.72,3.32C95.94,441.08,95.22,441.4,93.85,440.31Z" transform="translate(-12.34 -28)"/><path d="M397.49,257.33c2-.08,4-.19,5.93-.23,5.72-.11,11.44-.19,17.16-.27a12.1,12.1,0,0,1,2.62.15,1.2,1.2,0,0,1,.67.95c0,.32-.4.71-.72.93a2,2,0,0,1-.95.16q-11.55.18-23.11.34C398.15,259.37,397.3,259.18,397.49,257.33Z" transform="translate(-12.34 -28)"/><path d="M420.29,193.83c-.85-1.89.51-2.13,1.41-2.53,4.12-1.84,8.26-3.62,12.4-5.42,3.64-1.58,7.28-3.16,10.92-4.71.78-.33,1.61-.53,2.88-.95-.18,1-.13,1.66-.43,2.06a3.51,3.51,0,0,1-1.43.78q-11.51,5-23,9.93A26.65,26.65,0,0,1,420.29,193.83Z" transform="translate(-12.34 -28)"/><path d="M412.78,275.67c8.25.61,16.42,1.22,24.57,2.13a5.9,5.9,0,0,1,1.52.65l-.48.88a7.24,7.24,0,0,1-2,.46c-7.34-.61-14.67-1.27-22-1.93C413.49,277.78,412.52,277.73,412.78,275.67Z" transform="translate(-12.34 -28)"/><path d="M432.28,299.43c-2.37.3-20.3-3.15-21.54-4-.27-.18-.29-.72-.43-1.12,1.94-.48,16.64,2.11,20.32,3.58C431.12,298.09,431.47,298.65,432.28,299.43Z" transform="translate(-12.34 -28)"/><path d="M337.83,73.23c2.78-6.51,5.56-13,8.4-19.53.1-.21.75-.19,1.52-.35a10.82,10.82,0,0,1-.37,2.34c-2.26,5.59-4.58,11.16-6.86,16.75C340.07,73.55,339.64,74.48,337.83,73.23Z" transform="translate(-12.34 -28)"/><path d="M444.78,336.09c.68-.49,1.05-1,1.46-1a4,4,0,0,1,1.56.41l13.28,4.75a3.2,3.2,0,0,1,1.18.54,5.48,5.48,0,0,1,.73,1.28,4.7,4.7,0,0,1-1.33.62,3,3,0,0,1-1.24-.36c-4.53-1.62-9.07-3.23-13.58-4.89A12.22,12.22,0,0,1,444.78,336.09Z" transform="translate(-12.34 -28)"/><path d="M105.76,393.05c-.14.6-.06,1.42-.43,1.78q-5.47,5.43-11.12,10.7c-.35.32-1.14.17-1.73.24,0-.57-.12-1.38.19-1.68,4-3.87,8.07-7.67,12.12-11.48Z" transform="translate(-12.34 -28)"/><path d="M302.81,89.15c-.72-1.08-1.37-1.61-1.29-2,1.26-5.47,2.6-10.93,4-16.37.08-.32.58-.54,1.11-1,.3.68.76,1.19.67,1.56C305.86,77.06,304.9,82.89,302.81,89.15Z" transform="translate(-12.34 -28)"/><path d="M137.42,119.73c-.49-.11-1.19-.06-1.42-.37q-4.49-5.91-8.82-11.93c-.21-.29.09-1,.24-2.17A104.65,104.65,0,0,1,138,119Z" transform="translate(-12.34 -28)"/><path d="M345.79,443.08c.91-1.11,1.61-1.13,2.1-.26,2.13,3.85,4.23,7.72,6.27,11.62.19.36-.09,1-.16,1.47-.48-.09-1.24,0-1.4-.31C350.26,451.41,348,447.17,345.79,443.08Z" transform="translate(-12.34 -28)"/><path d="M186.66,479.16c-.38-1.06-.78-1.62-.73-2.14.34-3.59,3.22-11.72,4.68-13.23.25.37.65.7.66,1C191.32,466.59,188.1,476.87,186.66,479.16Z" transform="translate(-12.34 -28)"/><path d="M369.1,117.89a18.14,18.14,0,0,1,1.31-3.13c2.08-3,4.24-5.85,6.39-8.75a2.57,2.57,0,0,1,.93-.9,1.34,1.34,0,0,1,1.16.1c.24.21.22.74.29,1.14,0,.09-.08.21-.14.29q-4,5.4-8.1,10.78C370.79,117.61,370.35,117.58,369.1,117.89Z" transform="translate(-12.34 -28)"/><path d="M428.91,234.64a5.27,5.27,0,0,1,1.35-.7c3.35-.63,6.7-1.21,10.06-1.77.84-.14,1.95-.39,2,.88,0,.37-1,1-1.58,1.16-3.24.58-6.5,1.06-9.75,1.51a8.88,8.88,0,0,1-2-.22Z" transform="translate(-12.34 -28)"/><path d="M414,168.26c0-.39-.1-1,.1-1.15,3.6-2.45,7.23-4.84,11.36-7.57.09,1.19.36,2.06.14,2.21-3.6,2.43-7.26,4.77-10.9,7.13Z" transform="translate(-12.34 -28)"/><path d="M235.42,41.89c-.48-.4-1.32-.75-1.38-1.2-.47-4-.81-8-1.25-12.69,1.11.65,2,.88,2,1.21.53,4.09.94,8.19,1.39,12.29Z" transform="translate(-12.34 -28)"/><path d="M74.61,252.33c-3.56-.4-7.12-.76-10.67-1.25-.45-.07-.81-.82-1.21-1.26.5-.29,1-.88,1.49-.83q4.75.47,9.48,1.21c.53.09,1,.79,1.45,1.21Z" transform="translate(-12.34 -28)"/><path d="M214.91,60.08c1.66,3.42,1.71,7.29,2.57,10.93.12.47-.33,1.08-.61,1.91-.57-.52-1.07-.75-1.15-1.07q-1.17-5.3-2.19-10.62c-.06-.32.34-.73.52-1.09Z" transform="translate(-12.34 -28)"/><path d="M414.49,391.87c-5.94-3.52-9.21-6.38-9.68-8.67a7.65,7.65,0,0,1,2.13.66c2.49,1.8,4.91,3.68,7.34,5.54C415.11,390,415.82,390.73,414.49,391.87Z" transform="translate(-12.34 -28)"/><path d="M166.1,461.92A5.59,5.59,0,0,1,166,460c1.82-5.78,3.5-8.88,5.65-9.85-.72,4.5-2.89,8-4.41,11.82Z" transform="translate(-12.34 -28)"/><path d="M196.6,446.82c-1,3.45-2,6.91-3,10.34-.11.35-.84.5-1.28.75-.23-.45-.73-1-.64-1.33.84-3.18,1.75-6.35,2.76-9.49.13-.41.91-.6,1.4-.9Z" transform="translate(-12.34 -28)"/><path d="M73.78,155.74c-1-.53-2-1-3-1.59C68.87,153,67,152,65.18,150.71c-.47-.32-.58-1.17-.85-1.78.59,0,1.32-.3,1.75-.06,2.48,1.39,4.92,2.85,7.29,4.39.52.34.74,1.12,1.1,1.69Z" transform="translate(-12.34 -28)"/><path d="M135.05,427.06a88.51,88.51,0,0,1,6.79-10c.25,1.34.62,2,.41,2.38-1.57,2.61-3.21,5.19-4.94,7.7-.29.41-1.15.42-1.75.61Z" transform="translate(-12.34 -28)"/><path d="M362.72,425.25c.42,0,.75-.09.82,0,2,2.58,4,5.17,5.85,7.82.19.27-.07,1-.33,1.35-.11.16-1,.07-1.13-.15-1.9-2.76-3.74-5.56-5.56-8.36C362.31,425.84,362.55,425.57,362.72,425.25Z" transform="translate(-12.34 -28)"/><path d="M109.56,153a11.12,11.12,0,0,1-2.33-.92c-2-1.55-3.94-3.12-5.82-4.79-.46-.41-.57-1.23-.84-1.86.66.05,1.49-.14,1.94.2,2.11,1.56,4.15,3.23,6.12,5C109.06,151,109.11,151.76,109.56,153Z" transform="translate(-12.34 -28)"/><path d="M445.39,278.55c3.81.31,7.13.54,10.45.89.35,0,.77.66.91,1.1.06.18-.52.86-.76.83-3.33-.32-6.65-.72-10-1.16C445.88,280.19,445.81,279.67,445.39,278.55Z" transform="translate(-12.34 -28)"/><path d="M150.29,80.62c1.7,3,3.42,6,5.06,9.06.18.34-.15.95-.23,1.44-.47-.14-1.2-.12-1.37-.43q-2.42-4.08-4.61-8.29c-.2-.39.17-1.09.28-1.64Z" transform="translate(-12.34 -28)"/><path d="M26.32,355.84c.86-.9,1.21-1.56,1.76-1.8,2.38-1.07,4.79-2.07,7.25-3,.54-.19,1.3.22,2,.35-.42.52-.72,1.27-1.26,1.5-2.48,1.11-5,2.1-7.56,3.06C28.05,356.16,27.5,355.94,26.32,355.84Z" transform="translate(-12.34 -28)"/><path d="M55.4,249.19c-4.29.73-9.53-.18-11.31-2.29,1.59,0,2.82-.09,4,0a27.27,27.27,0,0,1,3.92.49C53.2,247.61,54.78,247.15,55.4,249.19Z" transform="translate(-12.34 -28)"/><path d="M78.67,358.83c4.54-3.72,7.9-5.36,10-4.94.25,1.36-.91,1.65-1.71,2.07-2.48,1.3-5,2.52-7.53,3.72C79.35,359.72,79,359.25,78.67,358.83Z" transform="translate(-12.34 -28)"/><path d="M58.26,199.11c3.11,1.22,6.34,2.47,9.55,3.8.25.11.28.73.43,1.16-.44.19-.79.49-1,.41-2.92-1-5.82-2-8.71-3C57.49,201.09,57.2,200.36,58.26,199.11Z" transform="translate(-12.34 -28)"/><path d="M437.49,382.21c-2.47.34-7.21-2.43-9.52-5.25.7-.15,1.4-.54,1.77-.33C432.53,378.19,435.47,379.58,437.49,382.21Z" transform="translate(-12.34 -28)"/><path d="M455.56,177.24c3.21-2.62,6.74-3.73,10.62-4.93.13,2.52-1.69,2.45-2.76,3a22.12,22.12,0,0,1-3.6,1.56C458.61,177.33,457.49,178.68,455.56,177.24Z" transform="translate(-12.34 -28)"/><path d="M145.81,73c-2,1.06-2.34-.44-2.91-1.34-3.56-5.62-3.65-5.91-2.44-8A47.4,47.4,0,0,1,145.81,73Z" transform="translate(-12.34 -28)"/><path d="M375.09,441.54a21.57,21.57,0,0,1,1.78,1.89c1.41,1.94,2.81,3.89,4.11,5.9.21.32,0,1-.19,1.42a1,1,0,0,1-.88.08c-2.06-2.71-4.74-5-5.45-8.61C374.45,442.16,374.6,442.06,375.09,441.54Z" transform="translate(-12.34 -28)"/><path d="M116.48,90.63c1.88,2.41,3.78,4.8,5.6,7.26.22.3,0,1-.09,1.44-.49-.08-1.19,0-1.43-.27-1.76-2.11-3.48-4.27-5.1-6.49-.25-.34.06-1.09.11-1.65Z" transform="translate(-12.34 -28)"/><path d="M432.36,157.17c.32-1.27.28-2.06.63-2.32,2-1.47,4.13-2.88,6.29-4.17.43-.25,1.23.13,1.92.58A33,33,0,0,1,432.36,157.17Z" transform="translate(-12.34 -28)"/><path d="M161.5,477c-1.07,2.4-2.06,4.7-3.15,7-.1.21-.83.32-1.13.18s-.67-.75-.58-1c.82-2.26,1.69-4.51,2.67-6.71.14-.3.94-.45,1.4-.41C161,476,161.2,476.6,161.5,477Z" transform="translate(-12.34 -28)"/><path d="M460.19,230.39c-3.33,1.55-6.3,1.64-9.16,2.14a1.41,1.41,0,0,1-1.17-.81,1.43,1.43,0,0,1,.75-1.2q3.86-.78,7.76-1.3C458.75,229.17,459.21,229.74,460.19,230.39Z" transform="translate(-12.34 -28)"/><path d="M312.49,472.86c.95,3.09,1.9,6.18,3,9.7-1-.12-2,0-2-.27-.93-2.81-1.75-5.66-2.51-8.52-.07-.24.45-.63.7-.95Z" transform="translate(-12.34 -28)"/><path d="M266.84,481.44c-.36-.31-1-.61-1-.95-.18-2.95-1.25-5.88-.64-9.2.74.32,1.36.41,1.42.64a31.47,31.47,0,0,1,1.05,9.2Z" transform="translate(-12.34 -28)"/><path d="M23.78,244.72c3.53-.74,8.55.09,10.16,1.67-2.06,1.51-4.19.38-6.17.16C26.49,246.41,24.66,246.91,23.78,244.72Z" transform="translate(-12.34 -28)"/><path d="M96,141.16c-.39.13-1.12.61-1.37.42-2-1.48-4-3.06-5.95-4.68a1.19,1.19,0,0,1-.09-1.16c.18-.3.92-.63,1.07-.51,2.15,1.71,4.24,3.49,6.34,5.26C96,140.54,96,140.71,96,141.16Z" transform="translate(-12.34 -28)"/><path d="M373.44,65.16c1.83,1.43.52,2.46.1,3.36-1.84,4-2.73,5-4.83,5.42A26.23,26.23,0,0,1,373.44,65.16Z" transform="translate(-12.34 -28)"/><path d="M64.2,367.85c1.49-2.71,5.74-5.08,8.23-4.78C71.52,365.19,67.12,367.84,64.2,367.85Z" transform="translate(-12.34 -28)"/><path d="M45.91,319.1c-.64.92-.83,1.5-1.22,1.7a21.89,21.89,0,0,1-8.21,1.36c.16-.5.19-1.28.45-1.36C39.66,319.92,42.36,318.75,45.91,319.1Z" transform="translate(-12.34 -28)"/><path d="M79.27,418.52c0-2.89,2.6-3.88,4.08-5.67.61-.74,1.37-1.57,2.79-.34C84.55,415.22,82,416.94,79.27,418.52Z" transform="translate(-12.34 -28)"/><path d="M55.41,272.73a43.76,43.76,0,0,1-9.62-.19,6,6,0,0,1,.28-1.31c2.7-.15,5.4-.3,8.11-.31.48,0,1,.6,1.46.92Z" transform="translate(-12.34 -28)"/><path d="M124.25,404.21c.67,2.41.69,2.42-2.71,6.11-.72.79-1.33,2.26-3.13.9C119.86,408.64,121.94,406.66,124.25,404.21Z" transform="translate(-12.34 -28)"/><path d="M415.79,137a23.89,23.89,0,0,1-6.53,5.37l-.57-.47c.18-.56.18-1.27.55-1.63a55.7,55.7,0,0,1,4.65-4.18c.38-.29,1.21,0,1.83,0Z" transform="translate(-12.34 -28)"/><path d="M431.24,258.74c.08-.77,0-1.48.18-1.54,2.83-.94,5.7-.67,8.88-.48-.29.82-.33,1.45-.57,1.53C437,259.23,434.2,258.64,431.24,258.74Z" transform="translate(-12.34 -28)"/><path d="M243.05,501.11c1.73,1.14,1.09,2.81,1.09,4.21,0,1.15.71,3.15-1.16,3.12-1.61,0-.89-1.95-.89-3C242.09,504,241.54,502.37,243.05,501.11Z" transform="translate(-12.34 -28)"/><path d="M309.22,62.54c-.82-.18-1-.17-1-.23-.69-1.22.13-7.07,1.16-7.93a1,1,0,0,1,.87-.16c.31.22.75.69.69,1C310.42,57.61,309.82,60,309.22,62.54Z" transform="translate(-12.34 -28)"/><path d="M221.56,470.13c2,2.1,1.53,6.88-.72,8.79C220.13,475.91,220.76,473.27,221.56,470.13Z" transform="translate(-12.34 -28)"/><path d="M462.1,368.75c3,.1,5,1.41,7.06,2.6.23.13.28.78.21,1.15s-.48.63-.68.6a3.91,3.91,0,0,1-1.82-.58C465.42,371.39,463,371.47,462.1,368.75Z" transform="translate(-12.34 -28)"/><path d="M127.43,440.82c-.22-.28-.75-.78-.68-.9,1.24-2,2.56-3.95,3.86-5.9.43.31,1.27.87,1.25.91-1.18,1.92-2.41,3.8-3.68,5.66C128.09,440.73,127.79,440.72,127.43,440.82Z" transform="translate(-12.34 -28)"/><path d="M224.8,456.06a40.64,40.64,0,0,1-.47,4.57c-.14.6-.79,1.09-1.21,1.64-.34-.58-1-1.16-1-1.73a18.14,18.14,0,0,1,.55-4.21c.15-.58.87-1,1.33-1.51C224.38,455.4,224.74,456,224.8,456.06Z" transform="translate(-12.34 -28)"/><path d="M473,345.3c-.31.27-.78.91-1,.83-1.74-.56-3.45-1.24-5.14-1.95a.89.89,0,0,1-.23-.85c.2-.33.71-.83.92-.76,1.74.57,3.44,1.26,5.14,1.94C472.76,344.57,472.79,344.89,473,345.3Z" transform="translate(-12.34 -28)"/><path d="M331.77,91.92c-.71-2.48.13-4.87,2.4-7.17.27.32.76.64.74.93C334.82,87.22,333.21,90.41,331.77,91.92Z" transform="translate(-12.34 -28)"/><path d="M88.33,449.23c-.19-.45-.51-.87-.41-1,1-1.49,2.1-3,3.24-4.38.15-.19.8-.1,1.15,0,.19.08.42.66.32.8C91.44,446.38,90.65,448.49,88.33,449.23Z" transform="translate(-12.34 -28)"/><path d="M291.32,496.28c.35.21.94.36,1,.64a45.94,45.94,0,0,1,.95,4.81c.05.3-.43,1-.6.95-.43-.06-1.12-.34-1.19-.65-.41-1.77-.67-3.57-1-5.36Z" transform="translate(-12.34 -28)"/><path d="M18.7,213.79c2.86-.86,4.72.17,6.85.92-.25.62-.4,1.31-.55,1.31C22.88,216,20.76,216,18.7,213.79Z" transform="translate(-12.34 -28)"/><path d="M428.11,430.92a4.06,4.06,0,0,1-5-4.27C425.27,427.34,426.56,429,428.11,430.92Z" transform="translate(-12.34 -28)"/><path d="M12.34,300c.42-1,.55-1.73.84-1.8a23.25,23.25,0,0,1,4.16-.56c.35,0,.73.6,1.1.93-.33.36-.62,1-1,1C15.9,299.78,14.33,299.83,12.34,300Z" transform="translate(-12.34 -28)"/><path d="M258.75,59.26c1.71,2.39.72,4.55.86,6.84C257.34,65.07,257,62.19,258.75,59.26Z" transform="translate(-12.34 -28)"/><path d="M185.87,481.46c.27,4-.18,5.19-2.22,6.05A6.12,6.12,0,0,1,185.87,481.46Z" transform="translate(-12.34 -28)"/><path d="M131.13,479.82c-.71-2.75,0-4.1,2.39-4.93C134.16,477.29,132.5,478.48,131.13,479.82Z" transform="translate(-12.34 -28)"/><path d="M183.76,490.86c-.38,1.76-.56,2.87-.89,3.94-.07.22-.7.37-1.07.36-.21,0-.62-.44-.59-.62C181.42,493.28,181.21,491.74,183.76,490.86Z" transform="translate(-12.34 -28)"/><path d="M372,252.19c.31.83.62,1.66.92,2.5.66,1.48,1.22,3,2,4.42a7.85,7.85,0,0,0,1.72,1.68l2.91,6.21c.44,2.94,2.16,5.24,3.77,7.59.08.12.4.08.61.11l2.89,5.13a4.27,4.27,0,0,0,4.16,2.05c1.76,0,3.55-.33,3.89-2.62l-.1.11,2.47-2.66a11.09,11.09,0,0,1,1.3,10.49c-1.1,3.11-3.42,5.27-5.78,7.4l.15-.1c-4.57.89-7.83-1.14-10.31-4.72-1.8-2.6-3.44-5.3-5.21-7.92-.77-1.14-1.67-2.19-2.5-3.28l.1.14a7.17,7.17,0,0,0-2.75-4.77l.1.12q-3-5.43-6.05-10.88l-.91-1.75c-.72-1.27-1.21-2.74-3-3.57.09,1.43.09,2.53.24,3.61,1.29,8.83,2.16,17.75,4.05,26.45,1.28,5.88.26,9.85-5.89,12.27-.7-.68-1.77-1.59-2.69-2.64-2.26-2.56-4.38-5.24-6.68-7.76-1.31-1.43-2.88-2.62-4.33-3.93l.1.12-4.74-5.42.11.12L336,272.37l-.78.46q2.71,6.8,5.45,13.57c.06.14.36.18.55.27l-.09-.15,2.07,5.45-.09-.15,4.73,12.08-.09-.16a10.48,10.48,0,0,0,.21,1.59c.95,3.31.88,3.46-2.95,4.85l-2.56-3.78.09.15c-.61-1.87-1.07-3.81-1.86-5.6q-7-15.85-14.24-31.65c-.95-2.08-2.12-4.07-3.2-6.1l-.24-1.08c-.36-1.52-2-3-.46-4.59a62.86,62.86,0,0,1,5.36-4.82,2.46,2.46,0,0,1,3.33.2,18.21,18.21,0,0,1,1.95,1.78c4,4.38,8,8.79,12,13.16a16.25,16.25,0,0,0,2,1.58l-.11-.11,4.71,5.72,1.94,1.25c-.11,1.75,1.2,2.24,2.5,3a7.85,7.85,0,0,0,.07-1.24c-1.7-12.62-3.33-25.25-5.16-37.84-.36-2.44.25-4,2.26-5.24.75-.45,1.52-.88,2.23-1.4a4.77,4.77,0,0,1,5.47-.62l-.11-.11q1.71,2.72,3.41,5.43l-.09-.14c1.16,2.4,2.32,4.8,3.52,7.17.09.18.58.15.88.21l.92,2.49A4.71,4.71,0,0,0,372,252.19Zm-4.4,9.28-2-3.35c-.17-1.69-1.26-2.77-2.15-4l-.73.52,3,3.4,1.95,3.35,1.94,3.36q2.31,4,4.61,8l2.67,5.64.71-.37c-.89-1.91-1.48-4-3.22-5.42a17.48,17.48,0,0,0-4.84-7.77A3.21,3.21,0,0,0,367.58,261.47Zm-37.72-6.66c-2.19-1.45-2.59.79-3.58,1.8l3.63-1.88c.7,1.94,2.45,2.7,3.84,3.86l.45-.55ZM387,291.13l-2.35-2.46-.55.65,2.66,2.07c3.72,3,7.4,1.78,8.24-2.8C391.72,292.42,391.41,292.52,387,291.13Zm-26.66-49.54c-.05-1.77-1.18-2.92-2.17-4.14-3.26,1.45-3.26,1.45-3.11,4.6.06,1.26.12,2.51.21,4.24,1.16-2.7-1.2-6.14,2.63-7.47.93,1,1.72,1.86,2.52,2.71a6.7,6.7,0,0,0,.4,1.57Q366.37,253.54,372,264c.71,1.3,1.61,2.49,2.82,4.32a7,7,0,0,0-.14-1.46q-6.51-12-13.06-24C361.38,242.3,360.75,242,360.29,241.59ZM333.77,279.4l-.58.46q6.1,13.83,12.23,27.65c.07.17.55.15,1.19.29a6.5,6.5,0,0,0-.35-1.62c-.72-1.34-1.66-2.57-2.27-3.94-1.38-3.12-2.54-6.34-3.94-9.45C338,288.3,335.87,283.86,333.77,279.4Zm37-25.07c1.35,6.11,10.62,23.35,13.16,25.06ZM358.72,235l9.1,14.9.57-.35c-1.74-3.16-3.46-6.34-5.26-9.47a38.6,38.6,0,0,0-3.07-4.69,2.64,2.64,0,0,0-2.12-1,7.92,7.92,0,0,0-4.4,3.41Zm5.39,47.4-.49,0c.09,1.4.08,2.81.27,4.2.45,3.26,1.33,6.52-.7,9.86,2.18-.7,2.73-1.92,2.46-3.68C365.11,289.34,364.62,285.89,364.11,282.44ZM326.32,264.3l-.6.35,6.23,13,.69-.32C330.28,273.1,329.37,268.21,326.32,264.3Zm61.21,18.9c1.29.48,2.62,1.43,3.86,1.33,1.72-.15,3.38-1.09,5.08-1.7l1.08,1.43c-.1-1.52-.17-2.5-.27-4.14C394.31,283.5,391.14,284,387.53,283.2Zm-26.84-24.48a27,27,0,0,0,1.75,13.61Q361.56,265.52,360.69,258.72Zm-10.2,27.63.59-.6-8.68-9.25-.5.47Zm6.43-19.86-.68,0q.84,6.42,1.66,12.85a2.09,2.09,0,0,0,.46-1.5C357.9,274,357.41,270.27,356.92,266.49Zm3.05,19-2,.75c.75,2.47,1.45,4.76,2.15,7.05l.24,0C360.27,290.83,360.13,288.39,360,285.5Zm-26.76-11.24.79-.43q-1.78-4.6-3.55-9.21l-.68.26Q331.5,269.56,333.21,274.26Zm60.21,12.64-7.13-2.18C388.64,287,390.29,288.78,393.42,286.9ZM383,284.68l.69-.38c-1.15-2-2.31-4-3.47-6l-.47.25ZM349,279.61l-.34.37,4.21,4.21.23-.22Zm-21-22.2,4.7,3.17C331.56,259.2,330.78,257.16,328,257.41Zm33.49,38c2-1.84,1.4-3.47,1.09-5.05Zm27.08-6.06c1.06,1.05,2.32,1.84,4.07.2Zm-61.84-30.67c-.82,2.1-.8,2.15.88,4.19C327.38,261.61,327.12,260.37,326.77,258.72Zm34,16.17-.78-.14.5,3.33L361,278Zm-30.37-13.72-.38.48,2.1,1.73.37-.46Zm25.81.17-.4,0c.05.88.11,1.76.16,2.65l.38,0C356.26,263.1,356.21,262.22,356.16,261.34Z" transform="translate(-12.34 -28)"/><path d="M315.67,295.25c1.7,2.66,3.44,5.29,5.09,8a29.12,29.12,0,0,1,1.51,3.19,2,2,0,0,1-.69,3.06,26,26,0,0,0-2.34,2l-4.61,1.61c-1,.25-2.09.52-3.14.74-2.07.45-2.34.28-2.87-1.87-.46-1.86-.87-3.72-1.31-5.58l.07.16c-.34-3.05-.76-6.1-1-9.16a44.36,44.36,0,0,1-.18-6.91,3.52,3.52,0,0,1,1.68-2.51c.53-.26,1.74.55,2.49,1.09a22.38,22.38,0,0,1,2.33,2.24l-.11-.13Zm5.07,12.28c-3.34-4.66-5.69-9.35-9.35-13.26-.09,5.57.88,10.92,1.93,16.58Z" transform="translate(-12.34 -28)"/><path d="M268.93,307.41l3.27-2.55c2.53-1.81,4.9-1.21,6.81.83a15.45,15.45,0,0,1,3.14,4.93c1.41,3.79.74,5.12-2.83,6.83-2.15,1-4.33,2-6.5,3l.15-.08c-1.76.15-2.72-.62-3.38-2.32C268.23,314.53,268.49,311,268.93,307.41Zm5.74,9.57c5.32-1.45,8.65-2.87,3.56-9.06C273.73,308.53,272.19,312.45,274.67,317Z" transform="translate(-12.34 -28)"/><path d="M235.77,173l-.6,1.42a8.23,8.23,0,0,1-1.25-.12,17.88,17.88,0,0,1,.06-2.93A32.12,32.12,0,0,1,238.15,160l3.24-2.59h3.71l-.76,2,.13-.11a8.28,8.28,0,0,0-5.41,5.59l-.6.71A11.23,11.23,0,0,0,235.77,173Z" transform="translate(-12.34 -28)"/><path d="M309.31,184.18c-1.61-3.9-3.24-7.79-4.83-11.69-.32-.79-.49-1.64-.74-2.46q-2.16-6.67-4.31-13.37l-.09.14c1.64-1.05,3.21-2.23,4.94-3.11,2.87-1.48,3.48-1.18,4.61,1.79,1.05,2.77,2.05,5.56,3.1,8.32,2.88,7.59,5.73,15.19,8.69,22.75.48,1.24.64,2.84,2.27,3.35l.87,2.59c2.86,4.61,6.7,5.28,9.73,1.52.9-1.11,1.12-2.79,1.65-4.2l-.07.1a1.61,1.61,0,0,1,2.27.53c.36.51.75,1,1.13,1.49l-.09-.15c-.16,2.5.26,5.22-.59,7.47a18.23,18.23,0,0,1-10.39,10.93c-3.34,1.35-6.43,1.33-9.15-1.38-.78-.78-1.68-1.43-2.51-2.16q-13.5-11.92-27-23.84c-.9-.79-1.92-1.45-2.88-2.17,2.9,8.73,6.17,17,9.51,25.25,1.37,3.37,2.88,6.68,4.29,10,1.06,2.52,1,2.84-1.7,3.87a48.57,48.57,0,0,1-4.72,1.46c-1.7.46-3,.08-3.77-1.71a22.77,22.77,0,0,0-2.1-3.22l.1.14a4.83,4.83,0,0,0-.18-1.28q-7-16-14.1-32c-1.87-4.22-3.8-8.42-5.69-12.64-.61-1.35-1-2.65.24-3.94,4.8-4.85,11.07-5.2,16.21-.86.42.35.84.71,1.24,1.08q11.17,10.31,22.34,20.58c1.27,1.17,2.63,2.23,3.95,3.34l.56-.37C311.16,188.27,310.24,186.23,309.31,184.18Zm10.46,23.1c-.47-1.88-2.17-2.34-3.74-2.93l3.81,2.86c1.25,1.71,2.93,2.09,5.27,1.58l-2.69-.73C321.53,207.81,320.65,207.55,319.77,207.28Zm-10.42-9.48-4.54-4.09c-.08-.2-.1-.46-.25-.59q-7.72-6.87-15.5-13.7a7.86,7.86,0,0,0-1.25-.76,6,6,0,0,0,1.84,2.55q5.53,4.89,11.11,9.73c1.23,1.06,2.56,2,3.84,3l4.64,4A19.84,19.84,0,0,0,315,203l.48-.61Q312.43,200.08,309.35,197.8Zm-14,14-3.09-9.48-.64.23c.88,3.22,1.79,6.42,3.79,9.2.35,1.14.72,2.28,1.06,3.43.54,1.82.09,2.64-1.75,3.14-.76.2-1.56.31-2.34.46l.17.71,5.38-1.39C297.58,215.05,297.09,213.91,295.32,211.83Zm-8-39.7,2.44,2.25.46-.54-2.63-2c-2.6-2.72-5.13-5.54-8.93-6.48l-.44.61ZM302,157.33a18.9,18.9,0,0,0,.52,3.64c1.48,4.25,3,8.49,4.7,12.68,2.47,6.23,5.06,12.41,7.57,18.63a21.55,21.55,0,0,1,.7,2.8l-2.39-.29-.11.46,4.08,1.8a29.1,29.1,0,0,0-.76-3.82c-.62-1.75-1.4-3.46-2.13-5.18C309.91,177.93,305.58,167.84,302,157.33Zm4,3-.78.46a233,233,0,0,0,9,22.58l.64-.25Q310.36,171.77,306,160.38Zm-26.26,12.88-.79.65,7.32,15.49a1.27,1.27,0,0,0,.17-1.33c-1.34-3.1-2.81-6.17-4-9.32-.44-1.14-.31-2.49-.49-4.29ZM319,187.39l-.6.31c1.41,3.82,2.6,7.77,6,10.51,1.59,1.26,2.62,1.29,5.4.45-4.11.26-6.22-2.3-7.88-5.44C320.93,191.29,320,189.33,319,187.39Zm-38.38-1.78.84-.35a41.43,41.43,0,0,0-5.16-12.43l-.75.31Zm24.31-30.11a22.75,22.75,0,0,1,2.07,2.9c.68,1.36,1.1,2.85,1.67,4.26.92,2.27,1.88,4.53,2.82,6.79l.55-.25-5.43-14.43Zm29.69,45.9c-5.11,3.1-5.11,3.1-6.8,6.35A13.52,13.52,0,0,0,334.62,201.4Zm-51.82-5.91q2.35,5.08,4.7,10.18l.73-.34A39.53,39.53,0,0,0,282.8,195.49ZM318.73,203c3.72,3.85,5.25,4.27,7.38,2.44Zm.11-8.77c.39,4.48.94,5.24,4,5.84Zm3.39,7.62c3.2,1.72,4.73,1.67,6.59,0Zm-34.76-3.27.72-.26-2.74-6.54-.67.28Q286.13,195.34,287.47,198.61ZM269,167.94l.41.62,5.91-3.34-.31-.55Zm45.79,29.92-.36.54c1.07.91,2.07,2,3.89,1.35Zm-7.53-7.33.45-.48-3-2.81-.47.5Zm7.21-14.42-.43.16,1.39,3.65.52-.2Zm22.11,17.55c-1.49,2.06-1.49,2.06,0,3.69Zm-49,17.51.52-.39c-.51-1.05-1-2.11-1.54-3.17l-.47.22C286.63,208.94,287.12,210.05,287.62,211.17Zm-.71-35.85.54-.6-2.89-2.12-.43.55Z" transform="translate(-12.34 -28)"/><path d="M267.18,210.47l.4,1.23c.75,2.08,2,3.8,4.34,3.9a4.24,4.24,0,0,0,4.34-3.26l-.1.11c1.3-.33,2.53-.26,2.75,1.35a13.58,13.58,0,0,1,.15,4.83c-1.07,4.58-4.16,7.37-8.6,8.72-3.62,1.1-6.58.34-8.81-2.71a32.47,32.47,0,0,1-3.88-6.86A265.25,265.25,0,0,1,247.94,187a4,4,0,0,1,1-4.27,18,18,0,0,1,4.65-3.05c2.42-1.05,3.73-.45,4.69,2a68.25,68.25,0,0,1,2,6.62c1.79,6.47,3.52,13,5.36,19.4A13,13,0,0,0,267.18,210.47Zm-6.28,9.26a26.85,26.85,0,0,0,2.39,3.86c3.07,3.51,7.28,3.34,10.64-.55-.87.42-1.43.73-2,1-4.22,1.82-6.28,1.29-9.22-2.27-.57-.69-1.26-1.29-1.89-1.94a16.42,16.42,0,0,0-.45-2.82c-1.58-4.69-3.27-9.35-4.85-14q-2.28-6.72-4.4-13.49c-1-3.17-.57-4.23,2.2-6.1a17,17,0,0,1,1.78-.89,23.82,23.82,0,0,1,1.63,3.57c1.25,4.45,2.24,9,3.56,13.4s2.88,9,4.55,13.42c.84,2.2,2.14,4.27,4.9,4.63-3.27-2.4-4.81-5.91-5.89-9.56-1.81-6.12-3.31-12.33-5-18.48-.61-2.23-1.31-4.44-2.07-6.62a2,2,0,0,0-2.85-1.43c-3.12,1.1-4.67,3.68-3.74,6.9,2.33,8,4.72,16,7.28,24A66.52,66.52,0,0,0,260.9,219.73Zm2.78-3.93c1.95,4.49,3.47,5.61,5.95,4.47C267.69,218.81,265.73,217.33,263.68,215.8Zm10.15,1.72a7.32,7.32,0,0,1,2,.29c.42.2.66.75,1.42,1.71.09-1.8.15-3,.24-4.58Zm-21.76-31.38.64.55,2.42.26-1.23-2.39Z" transform="translate(-12.34 -28)"/><path d="M190,282.33l-2.54.27c-2.52.23-5,.49-7.56.66a47.87,47.87,0,0,0-17.49,4.43,21.66,21.66,0,0,0-11.63,13.23c-.27.78-.64,1.53-1,2.3a12,12,0,0,1-3-19.75,61.38,61.38,0,0,1,6.7-4.76,35.22,35.22,0,0,1,3.19-1.67c-.45-1.25-.71-2.2-1.12-3.09q-8.13-17.7-16.33-35.38c-.81-1.75-1.91-3.37-2.87-5l.09.14c-.27-.93-.47-1.89-.81-2.8-2-5.18-1.22-8.05,3.08-11.59a19.52,19.52,0,0,1,3.28-2.19c2.86-1.5,3.45-1.3,4.75,1.63,4.07,9.13,8.1,18.27,12.16,27.4,2.85,6.42,5.69,12.85,8.63,19.24a23.17,23.17,0,0,0,2.36,3.39l.26,1.12c.63,3.49.79,3.61,3.86,3.05,2.81-.52,5.7-.78,8.44-1.55,4.51-1.26,9.3-2.14,12.08-6.68a2.45,2.45,0,0,1,2.29-.46c2.82,1.28,4.23,3.79,4.92,6.67.64,2.65-.49,4.69-2.58,6.34a28.87,28.87,0,0,0-2.51,2.44l-1.15.26C193.5,280.31,191.47,280.64,190,282.33ZM153.68,264l1.63,5c1.26,2.87,2.51,5.75,3.85,8.83l-6.55,3.53.26.44,8-3.53c-1.24-2.45-2.3-4.69-3.51-6.85-.51-.92-.49-2.42-2.1-2.41.58-2-.41-3.54-1.69-5-.2-2.64-1.66-4.73-3.15-6.8C151.34,259.63,151.82,262.15,153.68,264Zm9.28-2.66c.66,1.33,1.31,2.66,2,4,.45,4.15,2.93,7.44,4.54,11.23l11.79-2.12-.08-.58-11,1.51c-.92-1.93-1.66-3.63-2.53-5.27s-1.85-3.14-2.78-4.71c-.65-1.34-1.31-2.67-2-4L159.05,252a3.29,3.29,0,0,0-.11-.64q-6.16-14-12.36-27.91c-.18-.41-.7-.66-1.05-1,.38-1.58-.38-2.73-1.52-3.92-1.55.73-3.19,1.23-3.92,3l3.53-1.92,2,2.76a4.27,4.27,0,0,0,.18,1q6.08,13.91,12.2,27.77c.16.36.75.54,1.13.81C159.24,255.59,161.12,258.48,163,261.38Zm-13.34,30.47c3-2.9,5.43-6.55,9.49-8.39a14.71,14.71,0,0,0-5,2.24c-2.06,1.59-4.09,3.34-4.43,6.21A3.71,3.71,0,0,0,148,295l.68.26Zm-3.37,5.43,2.61,3.89,1.64-4.55-1.89,2-2.2-1.49c-2-5.05,0-9.21,3-13.26a11.91,11.91,0,0,0-3.63,4.11C144.44,291.07,144,294.3,146.25,297.28Zm10.23-43.48.56-.25-13.91-32-1.14,1C146.89,233.13,151.68,243.47,156.48,253.8ZM145,239.94q6.71,14.52,13.43,29l.59-.27A168.77,168.77,0,0,0,145,239.94Zm28.36,41.75c-5.48-.65-17,4.86-19.09,9.57C160,285.81,166.54,283.37,173.4,281.69Zm13.34-5.59-.27-.76c-6.18,1.56-12.73,1.49-18.56,4.63ZM148.9,241.57a116.63,116.63,0,0,0-7-14.95C142.32,230.66,145,236.31,148.9,241.57Zm46,26.16c4,0,3.65,3.42,4.94,5.75.53-2.82-.8-4.73-2.52-6.45C196.54,266.29,195.71,266.42,194.87,267.73Zm-5,6.27.34.66c3.05-.37,3.53-.74,4.08-3.31Zm-31.74-13.71-.67.29c.94,2.21,1.89,4.42,2.83,6.62l.77-.33C160.1,264.68,159.13,262.48,158.15,260.29Zm-18-31V224.5C138.48,226,138.88,227.32,140.18,229.32ZM189.9,272l-.44-.68-4.2,1.61.24.63Zm-26.37,5.85,1-.36-1.4-3-.62.27Zm2-2.82.6-.3c-.64-1.22-1.27-2.44-1.91-3.65l-.52.27Zm-17.35-23.57-.53.42,1.57,3.19.6-.31C149.26,253.61,148.71,252.51,148.17,251.41Zm-9.78-28.08-.66-.28-1.18,2.88.45.2C137.46,225.19,137.93,224.26,138.39,223.33Z" transform="translate(-12.34 -28)"/><path d="M188.16,213h1.53l3.75,3.38-.08-.13a27.29,27.29,0,0,0,.72,3.51c1.59,4.65,3.16,9.3,4.93,13.89,1.05,2.71,2.45,5.29,3.7,7.93l-.1-.14a41.55,41.55,0,0,0,2.76,4.65c2,2.64,3.18,2.58,5.63,0l.91-1.86,1.59-.9c2.67,5.65.54,12.34-4.62,15a5.58,5.58,0,0,1-5.4.13c-1.65-.86-3.22-1.87-4.82-2.81l-1.57-1.58c-1.84-2.87-3.89-5.62-5.46-8.62-2-3.89-3.73-8-5.45-12-1.33-3.13-2.48-6.35-3.66-9.54s-1-6.24,2.3-8.36A39.51,39.51,0,0,0,188.16,213Zm23.75,39.16c-.19.25-.38.51-.58.76-3,3.72-6,4.26-9.6,1.2a27.51,27.51,0,0,1-5.8-6.66c-4.67-7.75-7.76-16.26-11.12-24.62-1.27-3.17-.56-4.21,3.43-5.35,1.11,3.17,2.22,6.37,3.34,9.57l.73-.26c-1.13-3.48-2.25-7-3.41-10.56h1.51c-.55-.7-1.31-1.11-1.8-.9a13.58,13.58,0,0,0-2.76,1.79c-2.64,2-3,2.79-1.84,5.89q2,5.43,4.28,10.73c1.89,4.33,3.83,8.65,6,12.87a22.42,22.42,0,0,0,8.37,9.57c4.12,2.45,8.25.57,9.19-4.11,1.59-1.42,1.42-3.1,1.2-4.8l-.72-.1Zm-16.77-23.67c.77,5.05,2.06,9.95,5.19,14.11-1.43-4.48-3.08-8.86-4.74-13.24C195.47,229.1,195.29,228.82,195.14,228.53Zm-.07,8.81a14.72,14.72,0,0,0,5.49,9.85Zm7.1,14.61c2.6,2.65,3.38,2.79,5.93,1.15Zm7.92-1.9-7.91-.8A6.68,6.68,0,0,0,210.09,250.05Zm-23-30.8c-1,.89-1.63,1.44-.21,2l1.33.5Z" transform="translate(-12.34 -28)"/><path d="M179.73,193.83a5.51,5.51,0,0,1,5.42,5.49c-.09,3.85-3.6,7.33-7.2,7.14-2.81-.14-5.35-3.36-5.17-6.55A6.71,6.71,0,0,1,179.73,193.83Zm-3.52,3.38c-2.43,2.33-2.43,4,0,5.9.36,1.59,1.62,1.61,2.82,1.46a5.6,5.6,0,0,0,4.38-5.95c-.17-1.08-.4-2.21-1.92-2.11C178.94,195.08,178.18,195.19,176.21,197.21Z" transform="translate(-12.34 -28)"/><path d="M176.14,197.13a8.72,8.72,0,0,1,5.35-.66c.16.38.3.78.48,1.15a3.87,3.87,0,0,1-3.6,5.83,15.69,15.69,0,0,1-2.23-.3A6.17,6.17,0,0,1,176.14,197.13Zm2.83,4.46-1.66-2.42C176.74,201.35,176.74,201.35,179,201.59Z" transform="translate(-12.34 -28)"/></g></svg>