<svg id="Layer_1" data-name="Layer 1" xmlns="http://www.w3.org/2000/svg" viewBox="0 0 717 422"><path d="M122.14,235.33c2.5-9.79,11-4.26,16.15-7.21l.72,1c-1.82,2.87-3.34,6-5.53,8.54A16.72,16.72,0,0,0,129,250.41c.79,15.44-.46,14.6,14.42,14.62,2.66,0,5.4-.44,8,0,8.91,1.68,13.43-3.81,17.34-10.26a56.8,56.8,0,0,1,8-10.12,6.53,6.53,0,0,1,4.9-1.89c17.76-.74,35.52-.29,53.28-.2,3,0,3.82-.37,3.85-3.7.13-15,.68-30,1.18-45,.08-2.42-.75-3.46-3.16-3.4-20.95.51-41.92-.28-62.89,1.12-8.05.54-12.05,5.19-16,10.78-5.31,7.58-10.5,15.24-15.7,22.9-1.82,2.68-4.59,1.68-6.75,1.4-2.94-.4-6.94,1.71-8.68-2.39s2.36-5.59,4.2-7.69c8.82-10,16.29-21.14,25.4-31.75-7.92-.73-15.19-1.33-22.45-2.08-5.73-.6-11.44-1.33-17.15-2.08-7.33-1-10.66-5.57-9.94-12.95.63-6.45.67-13,1.28-19.4.37-3.89,3.32-6.68,5.51-9.58,8.31-10.95,16.95-21.64,25.44-32.44.94-1.2,1.83-2.36,3.43-2.71,22.73-5,45.08-11.8,68.38-14.36,12.68-1.39,25.33-3.06,38-4.22,2.25-.21,4.39-.52,3.78-3.81-.41-2.16,1.55-2.88,3.05-3.34,11.17-3.45,22.62-2.84,34.06-2,1.37.1,2.82.74,2.78,2.35-.09,4.37,3,4.13,5.8,4.09,6.25-.08,12.52,0,18.72-.65,4.35-.44,6.79.18,5.47,5.25a5.75,5.75,0,0,0,1.09-.19c.34-5.92,4.3-6.3,8.84-5.83,4.93.52,10.31-1.9,14.71,2.23a1.11,1.11,0,0,0,.9.1c4.44-1.57,4.75-1.75,7.22,1.69,2.8,3.9,6.09,4.86,10.91,4.83,41.21-.28,82.42-.18,123.63-.1,1.2,0,3.39-.6,3.56.57.23,1.55.56,3.64-1.09,5-2,1.73-2.71,4-2.39,7.37,2.34-3.16,5.72-4.92,5.52-9-.17-3.47,1.89-4,4.69-3.95,21.32.48,42.64-.23,63.95.77,3.38.16,6.92-1.51,10,1a10.21,10.21,0,0,0-1.2,8.31c.5,2.06,1.5,2.74,3.41,1.53a8.64,8.64,0,0,0,2.34,6.62c.48-4.52,3-7,6.52-8.63a1.32,1.32,0,0,0,.82-1.61c-.29-.86-.89-.6-1.55-.28-1.57.76-4.11,1.31-3.22-1.21.8-2.26-3.14-6.33,2.55-7,6.21-.72,12.36-2,18.51-3.14,2.24-.42,3.09-.23,4.17,2.36,5,12,10.75,23.61,15.57,35.67a39,39,0,0,1,2.46,14c.06,3.39-4.36,4.26-5.76,7.85l5.08-3.81c1.64,2.12,1.34,4.35,1.65,6.38-2.27.87-1.6-2.08-3.07-1.74-.25.05-.21,1.19-.38,1.8-.65,2.36.93,1.88,2.27,1.87,2,0,1.35,1.61,1.36,2.56.07,8.19,2.88,16.15,1.53,24.54-.4,2.48,1.48,5.47,1,8.46-.27,1.74,3.27,4.54-1.47,5a1.34,1.34,0,0,0-.15.79c5.46,3.31,3.34,9.13,3.66,13.52a245.76,245.76,0,0,1,.2,37.3c-.48,5.94.43,11.61.3,17.4-.14,6.44,0,12.88,0,19.32,0,7.08-1.34,14.48.31,21.15,1.56,6.36,0,12.24.47,18.29.52,6.66-2.67,12.16-5.3,17.86-.9,1.95-2.58,2.26-4.53,2.39-7.77.48-15.52,1.2-23.3,1.58-3.7.18-7,1.2-9.08,4.19-1.92,2.78-4.65,3.12-7.32,3.1-15.45-.1-30.88.18-46.3,1.12A108.74,108.74,0,0,0,520,350.9c-3.45.71-4.47-.68-5.32-3.4-2.53-8.16-5.27-16.27-7.69-24.46-.87-2.93-2.53-4-5.4-4-17,.05-33.95,0-50.92.06-3.12,0-5.18,1-6.24,4.42-2.82,9.12-6.18,18.07-9,27.19-.69,2.29-1.53,2.84-3.7,2.83q-42.15-.12-84.3-.12c-32,0-64.08-.27-96.12.09-7.5.08-7.41-5.85-9.17-9.68-4.42-9.59-8.71-19.18-14.4-28.11-1.34-2.09-3.2-3.24-5.13-4.47-11.09-7-23-7.47-35.14-3.81-8.11,2.44-12.76,9.42-16.84,16.2-4.38,7.31-7.75,15.22-11.61,22.84-1.35,2.66-3.6,3.63-6.59,3.52-14.92-.59-29.86-1.09-44.79-1.61-7.27-.25-10.52-3.09-10.49-10.34,0-4-2.84-8.71.61-11.83,2.94-2.66,7.62,0,11.6-1-.34-.47-.52-.89-.64-.87-6.73.94-8-3.92-7.9-8.54.27-9.33-3.47-18.18-2.37-27.6,1.2-10.17-.6-20.59,2-30.66.88-3.43,1.83-7,4.67-9.56.72-.65,1.81-1.19,1.34-2.37s-1.77-1.24-3-1.3c-3.76-.19-7.53-.37-11.29-.71-7.63-.69-8.92-3.45-4.87-10.28,2.08-2.93,6.13-4.2,6.92-8.22,2.56-.06,5,0,3.24,3.69-.65,1.35.12,1.57,1,2.17s2.52-2.57,2.71.46c.11,1.84-.28,3.68-2.69,4.09-.76.12-1.8.27-2.15.79-.72,1.05-2.54,1.41-2.25,3,.39,2.11,2.22.83,3.32,1.06,1.84.38,3.89-.14,5.7.31,7,1.76,11.67-.92,14.52-7.34a14.63,14.63,0,0,1,2.06-2.59c1.36,1.3.69,3.66,2.44,4.48-.2,3.21-.4,6.42-.63,10.05,4.45-1.84,2-5.59,3.09-8.12C125.29,235.68,123.69,235,122.14,235.33ZM319.3,130.77a16.22,16.22,0,0,0-2.67,14c2.5-4.41,3.95-9,2.55-13.92,2.48-3.93,1.59-8.06.66-12.25a62.22,62.22,0,0,0-2,11.29C317.65,131.19,318.35,131.21,319.3,130.77ZM615.67,160.4c2.47-.32,6,1.42,6.78-2.42.53-2.51-2.17-2.84-4-3.3-4.18-1.06-.49,3.52-2.74,3.9a6,6,0,0,0-4.55-2.75C612,158.5,610.58,162.72,615.67,160.4ZM590,213.64c1,2.23-.47,4.33,1.63,4.7,1,.18,2.24-.32,2-1.55s1.58-2.27-.8-3.94-6.53-3.56-5.24-8.18c.14-.51-.28-1.65-.62-1.73-2.13-.51-1.64-1-1.14-3,1-3.87,1.78-8.42.63-12.06a41.37,41.37,0,0,1-1.64-14.13,18.55,18.55,0,0,0-1.37-8.21,39.54,39.54,0,0,1-2.8-9.69c-.09-.57,1.64-1.63-.2-2.5s-2.49.12-2.48,1.74-.69,2-2.18,1.67c-11.52-2.31-23.17-.94-34.77-1.1-10.27-.15-16.87,6.17-17.1,16.37-.24,11.13-.06,22.27,0,33.4,0,44.21.09,88.42,0,132.62,0,3.07.72,4.1,3.67,4.06,11.58-.18,23.18-.64,34.75-.26,7.23.23,14.69-2.11,21.72,1.44,1.49.76,2.41-.47,2.52-1.53a25.51,25.51,0,0,0,.09-7.55c-1.4-7-2.47-14-.22-21.06.67-2.12,2.35-4.25-.88-5.78-.3-.14-.41-.91-.42-1.39,0-8.86,0-17.72,0-26.86,2.42,1.17,1.84,3.15,2.4,4.62.32.84.4,1.55,1.6.91.78-.41,2.76-.15,2.28-1.1-2.63-5.2,3-2.36,4.23-4.23-2.68-1.31-4-4.12-7.23-4.08-2.76,0-3.46-1.72-3.45-4.17.08-13.42.1-26.85.15-40.27,0-3.68,2.12-4.81,5.49-4.29C588.54,222.66,588.1,218.8,590,213.64ZM350.12,340.23v.18c8.38,0,16.76,0,25.14,0,16.13-.07,32.25-.08,48.38-.29,7.38-.09,9.68-2.66,9.78-10.12.06-4.6.08-9.19.12-13.79.07-8-3.75-11.62-11.86-11.59q-49.74.17-99.47.2c-14.41,0-28.81-.16-43.21-.08-8.12.05-11.36,3.24-11.86,11.37-.24,4-.24,8-.11,11.95.32,9.18,2.85,12,11.94,12.11C302.69,340.36,326.41,340.23,350.12,340.23ZM402.67,217.1v-.28c9.74,0,19.49,0,29.24,0,7.88,0,10.83-2.84,10.84-10.63,0-14.83-.06-29.65-.1-44.47,0-5.61-3.29-9.34-9-9.4-21.05-.18-42.11-.14-63.17-.23-1.72,0-2.65,0-2.63,2.29q.24,29.48.17,58.95c0,3.2,1.42,3.87,4.28,3.83C382.39,217,392.53,217.1,402.67,217.1Zm-118.85-.65c3.78-1.44,6.82-2.58,10.14-.11.94.7,2.53.71,3.82.71,20.11,0,40.23,0,60.34.06,3,0,4.23-1.19,4.15-4.11-.09-3.26,0-6.53,0-9.8-.06-15.73-.38-31.47,0-47.18.09-3.84-1.29-4.2-4.05-4.17-4,.06-8,.28-11.94.28-16.51,0-33-.59-49.54.15q-7.67.33-8.49,7.9a49.44,49.44,0,0,0-.33,5.95C288.09,182.93,288.68,199.75,283.82,216.45Zm-64.59-63.51v0c8.29,0,16.58.15,24.86-.06,6-.15,8.67-2.41,8.91-8.34.32-7.93,0-15.89-.22-23.83-.11-3.24-2-5-5.3-6.06s-6.53-.47-9.75-.57c-14.14-.44-28.28-.91-42.42.23-5.16.42-8.53,2.74-9,8a110.46,110.46,0,0,0,.25,23.28c.5,4.2,5,7.36,9.35,7.37C203.66,153,211.45,152.94,219.23,152.94ZM516.41,271.29h.08c0-5.65,0-11.3,0-17,0-3.73-1-8-4.52-8.7-10.51-2.15-21.3-2.53-31.81.11-3.76.94-5.39,4.64-5.37,8.66.05,10.77,0,21.54.18,32.3.14,8,3.26,11.77,10.2,12,7.26.28,14.54.29,21.8,0,6.82-.23,9.14-2.66,9.39-9.55C516.58,283.27,516.41,277.28,516.41,271.29ZM579,129.15c-.11,3.56-1.87,5.32-4.13,6.9-1.77,1.24-1.46,3.32-.8,5a2.86,2.86,0,0,0,3.09,1.85c2-.52,1.09-2.46,1.25-3.8a3.17,3.17,0,0,1,1.32-2.52C583.41,134.21,581.57,132,579,129.15ZM285.25,232.94c.31-2.23-2.47-2.65-3.35-2.78-2.86-.41-3.88,2.41-4.34,4.5-.6,2.67,3,2.5,3.77,2.6C283.5,237.55,285.47,236.05,285.25,232.94ZM129.88,127.29c-5.42,3-2.18,6-1.43,8.9C130.34,133.58,128.89,130.63,129.88,127.29Zm-10.5,213c-.28-.58-.21-2-1.36-1.26-1.6,1-3.69,1.75-3.91,4-.1,1.07,1,2.07,1.77,1.62C117.5,343.75,119.34,342.7,119.38,340.29ZM567.1,109.62c1.8-3.51,3.52-6.93.48-10.46Zm-444,44.75c-1.47.52-1.54,1.47-1.26,2.69s-1,3.29,1.18,3.65c2.64.42.31-4,3.2-3.69C126.21,154.92,123.53,156.19,123.14,154.37ZM461.32,151c-2.06,3.83-2.59,6.49-1.95,9.27A15.08,15.08,0,0,0,461.32,151Zm-139-49.4c.39-1.35.46-2.95-1.49-3.21-.85-.12-1.9,1.12-1.25,2,1,1.29-.2,3.76,1.79,4C322.84,104.59,322.61,102.92,322.32,101.6Z"/><path d="M235.64,347.48c1.39,19.86-12.81,36.13-33.07,37-17.49.75-35.11-12.74-36.44-31-1.58-21.72,12-37.74,33.44-39.38C216.62,312.84,234.93,326.71,235.64,347.48Z"/><path d="M476.09,338c9.31,0,18.61.1,27.91-.05,3.71-.05,5.36,1.44,5.89,5.09,2.16,14.71-2.94,26.63-14.81,35-11,7.73-23.34,7.72-35.25,1.92C446,373.25,439.12,359.36,441,344.26c.57-4.5,2.82-6.36,7.16-6.34,9.31,0,18.61,0,27.91,0Z"/><path d="M476,335c-9.2-.23-18.4.16-27.61-.27-3.58-.17-3.49-1.39-2.64-3.9.42-1.24.59-2.56,1-3.79,1-2.86,2.21-4.8,6.19-4.73,15.08.27,30.17-.06,45.26-.11,4.2,0,9.51,7.35,8.3,11.32-.64,2.09-2.32,1.47-3.71,1.47Q489.37,335,476,335Z"/><path d="M94.3,225.11c-.79,4-4.84,5.29-6.92,8.22-.14-3.82-3.52-8.5,2.82-10.6.29-.1.7-.44.69-.67,0-2.37.79-4.6,3.39-3C96.57,220.44,95.14,223.05,94.3,225.11Z"/><path d="M574.63,187.09c0,4.46,0,8.92,0,13.38-.06,8.91-2.4,11.47-11.31,11.77-7,.23-13.9.14-20.86.14-4.69,0-7.66-2.27-8-7-.84-11-1.35-22.1-.41-33.14.45-5.22,4.22-7.44,9-7.59q11.7-.35,23.42,0c5.48.18,8.19,3.58,8.08,9.07-.08,4.45,0,8.9,0,13.36Z"/><path d="M563.21,232.78a24.91,24.91,0,0,0,.16-4.39c-.46-3.61,1.46-4.3,4.42-3.91a20.47,20.47,0,0,0,2.41.39c2.61,0,6.3-1.7,7.51.92,1.91,4.15.83,9,.77,13.61,0,1-1,1.22-1.83,1.28-1.64.11-3.28.28-4.93.28C563.52,241,563.52,240.94,563.21,232.78Z"/><path d="M578.43,218.51c-.14,1.54.76,3.6-1.79,3.92-1.91.24-4.28,1-5.42-1.15a6,6,0,0,1,.12-6.18c.67-1,2.95-1.14,3-.49.41,3.81,1,1,2.48.61C579.46,214.51,578.09,217.24,578.43,218.51Z"/></svg>